Armada-Thin.ufo
<glyph name="exclam" format="1">
  <advance width="250"/>
  <unicode hex="0021"/>
  <outline>
    <contour>
      <point x="133" y="215" type="line"/>
      <point x="117" y="215" type="line"/>
      <point x="117" y="720" type="line"/>
      <point x="133" y="720" type="line"/>
    </contour>
    <contour>
      <point x="133" y="0" type="line"/>
      <point x="117" y="0" type="line"/>
      <point x="117" y="105" type="line"/>
      <point x="133" y="105" type="line"/>
    </contour>
  </outline>
</glyph>
<glyph name="quotedbl" format="1">
  <advance width="390"/>
  <unicode hex="0022"/>
  <outline>
    <contour>
      <point x="293" y="480" type="line"/>
      <point x="277" y="480" type="line"/>
      <point x="277" y="720" type="line"/>
      <point x="293" y="720" type="line"/>
    </contour>
    <contour>
      <point x="113" y="480" type="line"/>
      <point x="97" y="480" type="line"/>
      <point x="97" y="720" type="line"/>
      <point x="113" y="720" type="line"/>
    </contour>
  </outline>
</glyph>
<glyph name="numbersign" format="1">
  <advance width="726"/>
  <unicode hex="0023"/>
  <outline>
    <contour>
      <point x="656" y="197" type="line"/>
      <point x="513" y="197" type="line"/>
      <point x="513" y="0" type="line"/>
      <point x="497" y="0" type="line"/>
      <point x="497" y="197" type="line"/>
      <point x="229" y="197" type="line"/>
      <point x="229" y="0" type="line"/>
      <point x="213" y="0" type="line"/>
      <point x="213" y="197" type="line"/>
      <point x="70" y="197" type="line"/>
      <point x="70" y="212" type="line"/>
      <point x="213" y="212" type="line"/>
      <point x="213" y="508" type="line"/>
      <point x="70" y="508" type="line"/>
      <point x="70" y="523" type="line"/>
      <point x="213" y="523" type="line"/>
      <point x="213" y="720" type="line"/>
      <point x="229" y="720" type="line"/>
      <point x="229" y="523" type="line"/>
      <point x="497" y="523" type="line"/>
      <point x="497" y="720" type="line"/>
      <point x="513" y="720" type="line"/>
      <point x="513" y="523" type="line"/>
      <point x="656" y="523" type="line"/>
      <point x="656" y="508" type="line"/>
      <point x="513" y="508" type="line"/>
      <point x="513" y="212" type="line"/>
      <point x="656" y="212" type="line"/>
    </contour>
    <contour>
      <point x="497" y="212" type="line"/>
      <point x="497" y="508" type="line"/>
      <point x="229" y="508" type="line"/>
      <point x="229" y="212" type="line"/>
    </contour>
  </outline>
</glyph>
<glyph name="dollar" format="1">
  <advance width="700"/>
  <unicode hex="0024"/>
  <outline>
    <contour>
      <point x="588" y="69" type="line"/>
      <point x="519" y="15"/>
      <point x="429" y="-4"/>
      <point x="358" y="-5" type="curve"/>
      <point x="358" y="-125" type="line"/>
      <point x="342" y="-125" type="line"/>
      <point x="342" y="-5" type="line"/>
      <point x="271" y="-4"/>
      <point x="181" y="15"/>
      <point x="112" y="69" type="curve"/>
      <point x="112" y="178" type="line"/>
      <point x="128" y="178" type="line"/>
      <point x="128" y="77" type="line"/>
      <point x="197" y="24"/>
      <point x="281" y="10"/>
      <point x="350" y="10" type="curve" smooth="yes"/>
      <point x="419" y="10"/>
      <point x="503" y="24"/>
      <point x="572" y="77" type="curve"/>
      <point x="572" y="252" type="line"/>
      <point x="115" y="446" type="line"/>
      <point x="115" y="650" type="line"/>
      <point x="184" y="705"/>
      <point x="271" y="724"/>
      <point x="342" y="725" type="curve"/>
      <point x="342" y="820" type="line"/>
      <point x="358" y="820" type="line"/>
      <point x="358" y="725" type="line"/>
      <point x="429" y="724"/>
      <point x="516" y="705"/>
      <point x="585" y="650" type="curve"/>
      <point x="585" y="542" type="line"/>
      <point x="569" y="542" type="line"/>
      <point x="569" y="642" type="line"/>
      <point x="500" y="695"/>
      <point x="419" y="710"/>
      <point x="350" y="710" type="curve" smooth="yes"/>
      <point x="281" y="710"/>
      <point x="200" y="695"/>
      <point x="131" y="642" type="curve"/>
      <point x="131" y="457" type="line"/>
      <point x="588" y="262" type="line"/>
    </contour>
  </outline>
</glyph>
<glyph name="percent" format="1">
  <advance width="1071"/>
  <unicode hex="0025"/>
  <outline>
    <contour>
      <point x="976" y="48" type="line"/>
      <point x="927" y="7"/>
      <point x="876" y="-10"/>
      <point x="815" y="-10" type="curve" smooth="yes"/>
      <point x="754" y="-10"/>
      <point x="703" y="7"/>
      <point x="654" y="48" type="curve"/>
      <point x="654" y="312" type="line"/>
      <point x="703" y="353"/>
      <point x="754" y="370"/>
      <point x="815" y="370" type="curve" smooth="yes"/>
      <point x="876" y="370"/>
      <point x="927" y="353"/>
      <point x="976" y="312" type="curve"/>
    </contour>
    <contour>
      <point x="721" y="720" type="line"/>
      <point x="367" y="0" type="line"/>
      <point x="350" y="0" type="line"/>
      <point x="704" y="720" type="line"/>
    </contour>
    <contour>
      <point x="417" y="408" type="line"/>
      <point x="368" y="367"/>
      <point x="317" y="350"/>
      <point x="256" y="350" type="curve" smooth="yes"/>
      <point x="195" y="350"/>
      <point x="144" y="367"/>
      <point x="95" y="408" type="curve"/>
      <point x="95" y="672" type="line"/>
      <point x="144" y="713"/>
      <point x="195" y="730"/>
      <point x="256" y="730" type="curve" smooth="yes"/>
      <point x="317" y="730"/>
      <point x="368" y="713"/>
      <point x="417" y="672" type="curve"/>
    </contour>
    <contour>
      <point x="960" y="56" type="curve"/>
      <point x="960" y="304" type="line"/>
      <point x="913" y="344"/>
      <point x="862" y="355"/>
      <point x="815" y="355" type="curve" smooth="yes"/>
      <point x="768" y="355"/>
      <point x="717" y="344"/>
      <point x="670" y="304" type="curve"/>
      <point x="670" y="56" type="line"/>
      <point x="717" y="16"/>
      <point x="768" y="5"/>
      <point x="815" y="5" type="curve" smooth="yes"/>
      <point x="862" y="5"/>
      <point x="913" y="16"/>
    </contour>
    <contour>
      <point x="401" y="416" type="curve"/>
      <point x="401" y="664" type="line"/>
      <point x="354" y="704"/>
      <point x="303" y="715"/>
      <point x="256" y="715" type="curve" smooth="yes"/>
      <point x="209" y="715"/>
      <point x="158" y="704"/>
      <point x="111" y="664" type="curve"/>
      <point x="111" y="416" type="line"/>
      <point x="158" y="376"/>
      <point x="209" y="365"/>
      <point x="256" y="365" type="curve" smooth="yes"/>
      <point x="303" y="365"/>
      <point x="354" y="376"/>
    </contour>
  </outline>
</glyph>
<glyph name="ampersand" format="1">
  <advance width="745"/>
  <unicode hex="0026"/>
  <outline>
    <contour>
      <point x="651" y="365" type="line"/>
      <point x="576" y="365" type="line"/>
      <point x="576" y="50" type="line"/>
      <point x="510" y="6"/>
      <point x="417" y="-10"/>
      <point x="337" y="-10" type="curve" smooth="yes"/>
      <point x="257" y="-10"/>
      <point x="163" y="9"/>
      <point x="97" y="61" type="curve"/>
      <point x="97" y="296" type="line"/>
      <point x="146" y="346"/>
      <point x="210" y="369"/>
      <point x="258" y="373" type="curve"/>
      <point x="210" y="376"/>
      <point x="146" y="402"/>
      <point x="102" y="449" type="curve"/>
      <point x="102" y="652" type="line"/>
      <point x="168" y="709"/>
      <point x="262" y="730"/>
      <point x="339" y="730" type="curve" smooth="yes"/>
      <point x="416" y="730"/>
      <point x="510" y="712"/>
      <point x="576" y="664" type="curve"/>
      <point x="576" y="542" type="line"/>
      <point x="560" y="542" type="line"/>
      <point x="560" y="654" type="line"/>
      <point x="500" y="697"/>
      <point x="414" y="715"/>
      <point x="339" y="715" type="curve" smooth="yes"/>
      <point x="264" y="715"/>
      <point x="178" y="693"/>
      <point x="118" y="643" type="curve"/>
      <point x="118" y="456" type="line"/>
      <point x="168" y="401"/>
      <point x="246" y="380"/>
      <point x="324" y="380" type="curve" smooth="yes"/>
      <point x="651" y="380" type="line"/>
    </contour>
    <contour>
      <point x="560" y="58" type="curve"/>
      <point x="560" y="365" type="line"/>
      <point x="316" y="365" type="line" smooth="yes"/>
      <point x="243" y="365"/>
      <point x="171" y="346"/>
      <point x="113" y="289" type="curve"/>
      <point x="113" y="68" type="line"/>
      <point x="175" y="23"/>
      <point x="261" y="5"/>
      <point x="337" y="5" type="curve" smooth="yes"/>
      <point x="413" y="5"/>
      <point x="498" y="20"/>
    </contour>
  </outline>
</glyph>
<glyph name="quotesingle" format="1">
  <advance width="210"/>
  <unicode hex="0027"/>
  <outline>
    <contour>
      <point x="113" y="480" type="line"/>
      <point x="97" y="480" type="line"/>
      <point x="97" y="720" type="line"/>
      <point x="113" y="720" type="line"/>
    </contour>
  </outline>
</glyph>
<glyph name="parenleft" format="1">
  <advance width="350"/>
  <unicode hex="0028"/>
  <outline>
    <contour>
      <point x="269" y="-10" type="line"/>
      <point x="206" y="-3"/>
      <point x="148" y="27"/>
      <point x="112" y="67" type="curve"/>
      <point x="112" y="653" type="line"/>
      <point x="148" y="693"/>
      <point x="206" y="723"/>
      <point x="269" y="730" type="curve"/>
      <point x="269" y="714" type="line"/>
      <point x="210" y="707"/>
      <point x="157" y="680"/>
      <point x="128" y="646" type="curve"/>
      <point x="128" y="74" type="line"/>
      <point x="157" y="40"/>
      <point x="210" y="13"/>
      <point x="269" y="6" type="curve"/>
    </contour>
  </outline>
</glyph>
<glyph name="parenright" format="1">
  <advance width="350"/>
  <unicode hex="0029"/>
  <outline>
    <contour>
      <point x="238" y="67" type="line"/>
      <point x="202" y="27"/>
      <point x="144" y="-3"/>
      <point x="81" y="-10" type="curve"/>
      <point x="81" y="6" type="line"/>
      <point x="140" y="13"/>
      <point x="193" y="40"/>
      <point x="222" y="74" type="curve"/>
      <point x="222" y="646" type="line"/>
      <point x="193" y="680"/>
      <point x="140" y="707"/>
      <point x="81" y="714" type="curve"/>
      <point x="81" y="730" type="line"/>
      <point x="144" y="723"/>
      <point x="202" y="693"/>
      <point x="238" y="653" type="curve"/>
    </contour>
  </outline>
</glyph>
<glyph name="asterisk" format="1">
  <advance width="602"/>
  <unicode hex="002A"/>
  <outline>
    <contour>
      <point x="502" y="243" type="line"/>
      <point x="486" y="243" type="line"/>
      <point x="486" y="355" type="line"/>
      <point x="458" y="385"/>
      <point x="397" y="413"/>
      <point x="309" y="422" type="curve"/>
      <point x="309" y="140" type="line"/>
      <point x="293" y="140" type="line"/>
      <point x="293" y="422" type="line"/>
      <point x="205" y="413"/>
      <point x="144" y="385"/>
      <point x="116" y="355" type="curve"/>
      <point x="116" y="243" type="line"/>
      <point x="100" y="243" type="line"/>
      <point x="100" y="360" type="line"/>
      <point x="135" y="398"/>
      <point x="202" y="423"/>
      <point x="260" y="430" type="curve"/>
      <point x="202" y="437"/>
      <point x="135" y="462"/>
      <point x="100" y="500" type="curve"/>
      <point x="100" y="617" type="line"/>
      <point x="116" y="617" type="line"/>
      <point x="116" y="505" type="line"/>
      <point x="144" y="475"/>
      <point x="205" y="447"/>
      <point x="293" y="438" type="curve"/>
      <point x="293" y="720" type="line"/>
      <point x="309" y="720" type="line"/>
      <point x="309" y="438" type="line"/>
      <point x="397" y="447"/>
      <point x="458" y="475"/>
      <point x="486" y="505" type="curve"/>
      <point x="486" y="617" type="line"/>
      <point x="502" y="617" type="line"/>
      <point x="502" y="500" type="line"/>
      <point x="467" y="462"/>
      <point x="400" y="437"/>
      <point x="342" y="430" type="curve"/>
      <point x="400" y="423"/>
      <point x="467" y="398"/>
      <point x="502" y="360" type="curve"/>
    </contour>
  </outline>
</glyph>
<glyph name="plus" format="1">
  <advance width="530"/>
  <unicode hex="002B"/>
  <outline>
    <contour>
      <point x="470" y="362" type="line"/>
      <point x="273" y="362" type="line"/>
      <point x="273" y="158" type="line"/>
      <point x="257" y="158" type="line"/>
      <point x="257" y="362" type="line"/>
      <point x="60" y="362" type="line"/>
      <point x="60" y="377" type="line"/>
      <point x="257" y="377" type="line"/>
      <point x="257" y="581" type="line"/>
      <point x="273" y="581" type="line"/>
      <point x="273" y="377" type="line"/>
      <point x="470" y="377" type="line"/>
    </contour>
  </outline>
</glyph>
<glyph name="comma" format="1">
  <advance width="210"/>
  <unicode hex="002C"/>
  <outline>
    <contour>
      <point x="122" y="105" type="line"/>
      <point x="91" y="-70" type="line"/>
      <point x="75" y="-70" type="line"/>
      <point x="106" y="105" type="line"/>
    </contour>
  </outline>
</glyph>
<glyph name="hyphen" format="1">
  <advance width="330"/>
  <unicode hex="002D"/>
  <unicode hex="2010"/>
  <unicode hex="2011"/>
  <outline>
    <contour>
      <point x="270" y="312" type="line"/>
      <point x="60" y="312" type="line"/>
      <point x="60" y="327" type="line"/>
      <point x="270" y="327" type="line"/>
    </contour>
  </outline>
</glyph>
<glyph name="period" format="1">
  <advance width="210"/>
  <unicode hex="002E"/>
  <outline>
    <contour>
      <point x="113" y="0" type="line"/>
      <point x="97" y="0" type="line"/>
      <point x="97" y="105" type="line"/>
      <point x="113" y="105" type="line"/>
    </contour>
  </outline>
</glyph>
<glyph name="slash" format="1">
  <advance width="460"/>
  <unicode hex="002F"/>
  <outline>
    <contour>
      <point x="380" y="720" type="line"/>
      <point x="96" y="0" type="line"/>
      <point x="80" y="0" type="line"/>
      <point x="364" y="720" type="line"/>
    </contour>
  </outline>
</glyph>
<glyph name="zero" format="1">
  <advance width="740"/>
  <unicode hex="0030"/>
  <outline>
    <contour>
      <point x="628" y="73" type="line"/>
      <point x="548" y="17"/>
      <point x="464" y="-10"/>
      <point x="370" y="-10" type="curve" smooth="yes"/>
      <point x="276" y="-10"/>
      <point x="192" y="17"/>
      <point x="112" y="73" type="curve"/>
      <point x="112" y="647" type="line"/>
      <point x="192" y="703"/>
      <point x="276" y="730"/>
      <point x="370" y="730" type="curve" smooth="yes"/>
      <point x="464" y="730"/>
      <point x="548" y="703"/>
      <point x="628" y="647" type="curve"/>
    </contour>
    <contour>
      <point x="612" y="82" type="curve"/>
      <point x="612" y="638" type="line"/>
      <point x="535" y="691"/>
      <point x="461" y="715"/>
      <point x="370" y="715" type="curve" smooth="yes"/>
      <point x="279" y="715"/>
      <point x="205" y="691"/>
      <point x="128" y="638" type="curve"/>
      <point x="128" y="82" type="line"/>
      <point x="205" y="29"/>
      <point x="279" y="5"/>
      <point x="370" y="5" type="curve" smooth="yes"/>
      <point x="461" y="5"/>
      <point x="535" y="29"/>
    </contour>
  </outline>
</glyph>
<glyph name="one" format="1">
  <advance width="460"/>
  <unicode hex="0031"/>
  <outline>
    <contour>
      <point x="393" y="0" type="line"/>
      <point x="77" y="0" type="line"/>
      <point x="77" y="15" type="line"/>
      <point x="226" y="15" type="line"/>
      <point x="226" y="705" type="line"/>
      <point x="87" y="705" type="line"/>
      <point x="87" y="720" type="line"/>
      <point x="242" y="720" type="line"/>
      <point x="242" y="15" type="line"/>
      <point x="393" y="15" type="line"/>
    </contour>
  </outline>
</glyph>
<glyph name="two" format="1">
  <advance width="635"/>
  <unicode hex="0032"/>
  <outline>
    <contour>
      <point x="547" y="0" type="line"/>
      <point x="86" y="0" type="line"/>
      <point x="86" y="12" type="line"/>
      <point x="531" y="503" type="line"/>
      <point x="531" y="643" type="line"/>
      <point x="471" y="693"/>
      <point x="394" y="715"/>
      <point x="319" y="715" type="curve" smooth="yes"/>
      <point x="244" y="715"/>
      <point x="167" y="693"/>
      <point x="107" y="643" type="curve"/>
      <point x="107" y="542" type="line"/>
      <point x="91" y="542" type="line"/>
      <point x="91" y="652" type="line"/>
      <point x="157" y="709"/>
      <point x="242" y="730"/>
      <point x="319" y="730" type="curve" smooth="yes"/>
      <point x="396" y="730"/>
      <point x="481" y="709"/>
      <point x="547" y="652" type="curve"/>
      <point x="547" y="498" type="line"/>
      <point x="110" y="15" type="line"/>
      <point x="110" y="15" type="line"/>
      <point x="547" y="15" type="line"/>
    </contour>
  </outline>
</glyph>
<glyph name="three" format="1">
  <advance width="700"/>
  <unicode hex="0033"/>
  <outline>
    <contour>
      <point x="584" y="68" type="line"/>
      <point x="518" y="11"/>
      <point x="423" y="-10"/>
      <point x="346" y="-10" type="curve" smooth="yes"/>
      <point x="269" y="-10"/>
      <point x="174" y="11"/>
      <point x="108" y="68" type="curve"/>
      <point x="108" y="178" type="line"/>
      <point x="124" y="178" type="line"/>
      <point x="124" y="77" type="line"/>
      <point x="184" y="27"/>
      <point x="271" y="5"/>
      <point x="346" y="5" type="curve" smooth="yes"/>
      <point x="421" y="5"/>
      <point x="508" y="27"/>
      <point x="568" y="77" type="curve"/>
      <point x="568" y="289" type="line"/>
      <point x="510" y="346"/>
      <point x="438" y="365"/>
      <point x="365" y="365" type="curve" smooth="yes"/>
      <point x="289" y="365" type="line"/>
      <point x="289" y="380" type="line"/>
      <point x="357" y="380" type="line" smooth="yes"/>
      <point x="435" y="380"/>
      <point x="515" y="401"/>
      <point x="565" y="456" type="curve"/>
      <point x="565" y="643" type="line"/>
      <point x="505" y="693"/>
      <point x="420" y="715"/>
      <point x="345" y="715" type="curve" smooth="yes"/>
      <point x="270" y="715"/>
      <point x="184" y="693"/>
      <point x="124" y="643" type="curve"/>
      <point x="124" y="542" type="line"/>
      <point x="108" y="542" type="line"/>
      <point x="108" y="652" type="line"/>
      <point x="174" y="709"/>
      <point x="268" y="730"/>
      <point x="345" y="730" type="curve" smooth="yes"/>
      <point x="422" y="730"/>
      <point x="515" y="709"/>
      <point x="581" y="652" type="curve"/>
      <point x="581" y="449" type="line"/>
      <point x="537" y="402"/>
      <point x="471" y="376"/>
      <point x="423" y="373" type="curve"/>
      <point x="471" y="369"/>
      <point x="535" y="346"/>
      <point x="584" y="296" type="curve"/>
    </contour>
  </outline>
</glyph>
<glyph name="four" format="1">
  <advance width="705"/>
  <unicode hex="0034"/>
  <outline>
    <contour>
      <point x="578" y="0" type="line"/>
      <point x="562" y="0" type="line"/>
      <point x="562" y="262" type="line"/>
      <point x="117" y="262" type="line"/>
      <point x="117" y="720" type="line"/>
      <point x="133" y="720" type="line"/>
      <point x="133" y="277" type="line"/>
      <point x="562" y="277" type="line"/>
      <point x="562" y="720" type="line"/>
      <point x="578" y="720" type="line"/>
    </contour>
  </outline>
</glyph>
<glyph name="five" format="1">
  <advance width="695"/>
  <unicode hex="0035"/>
  <outline>
    <contour>
      <point x="594" y="68" type="line"/>
      <point x="528" y="11"/>
      <point x="433" y="-10"/>
      <point x="356" y="-10" type="curve" smooth="yes"/>
      <point x="279" y="-10"/>
      <point x="184" y="11"/>
      <point x="118" y="68" type="curve"/>
      <point x="118" y="178" type="line"/>
      <point x="134" y="178" type="line"/>
      <point x="134" y="77" type="line"/>
      <point x="194" y="27"/>
      <point x="281" y="5"/>
      <point x="356" y="5" type="curve" smooth="yes"/>
      <point x="431" y="5"/>
      <point x="518" y="27"/>
      <point x="578" y="77" type="curve"/>
      <point x="578" y="323" type="line"/>
      <point x="516" y="381"/>
      <point x="439" y="396"/>
      <point x="358" y="396" type="curve" smooth="yes"/>
      <point x="123" y="396" type="line"/>
      <point x="123" y="720" type="line"/>
      <point x="594" y="720" type="line"/>
      <point x="594" y="705" type="line"/>
      <point x="139" y="705" type="line"/>
      <point x="139" y="411" type="line"/>
      <point x="358" y="411" type="line" smooth="yes"/>
      <point x="450" y="411"/>
      <point x="529" y="393"/>
      <point x="594" y="333" type="curve"/>
    </contour>
  </outline>
</glyph>
<glyph name="six" format="1">
  <advance width="704"/>
  <unicode hex="0036"/>
  <outline>
    <contour>
      <point x="595" y="68" type="line"/>
      <point x="529" y="11"/>
      <point x="431" y="-10"/>
      <point x="354" y="-10" type="curve" smooth="yes"/>
      <point x="277" y="-10"/>
      <point x="178" y="11"/>
      <point x="112" y="68" type="curve"/>
      <point x="112" y="652" type="line"/>
      <point x="178" y="709"/>
      <point x="277" y="730"/>
      <point x="354" y="730" type="curve" smooth="yes"/>
      <point x="431" y="730"/>
      <point x="529" y="709"/>
      <point x="595" y="652" type="curve"/>
      <point x="595" y="542" type="line"/>
      <point x="579" y="542" type="line"/>
      <point x="579" y="643" type="line"/>
      <point x="519" y="693"/>
      <point x="429" y="715"/>
      <point x="354" y="715" type="curve" smooth="yes"/>
      <point x="279" y="715"/>
      <point x="188" y="693"/>
      <point x="128" y="643" type="curve"/>
      <point x="128" y="346" type="line"/>
      <point x="182" y="386"/>
      <point x="272" y="409"/>
      <point x="354" y="409" type="curve" smooth="yes"/>
      <point x="431" y="409"/>
      <point x="542" y="386"/>
      <point x="595" y="333" type="curve"/>
    </contour>
    <contour>
      <point x="579" y="77" type="curve"/>
      <point x="579" y="326" type="line"/>
      <point x="523" y="377"/>
      <point x="430" y="394"/>
      <point x="354" y="394" type="curve" smooth="yes"/>
      <point x="269" y="394"/>
      <point x="189" y="374"/>
      <point x="128" y="329" type="curve"/>
      <point x="128" y="77" type="line"/>
      <point x="188" y="27"/>
      <point x="279" y="5"/>
      <point x="354" y="5" type="curve" smooth="yes"/>
      <point x="429" y="5"/>
      <point x="519" y="27"/>
    </contour>
  </outline>
</glyph>
<glyph name="seven" format="1">
  <advance width="575"/>
  <unicode hex="0037"/>
  <outline>
    <contour>
      <point x="503" y="709" type="line"/>
      <point x="195" y="0" type="line"/>
      <point x="177" y="0" type="line"/>
      <point x="484" y="705" type="line"/>
      <point x="57" y="705" type="line"/>
      <point x="57" y="720" type="line"/>
      <point x="503" y="720" type="line"/>
    </contour>
  </outline>
</glyph>
<glyph name="eight" format="1">
  <advance width="740"/>
  <unicode hex="0038"/>
  <outline>
    <contour>
      <point x="608" y="65" type="line"/>
      <point x="529" y="8"/>
      <point x="453" y="-10"/>
      <point x="360" y="-10" type="curve" smooth="yes"/>
      <point x="267" y="-10"/>
      <point x="191" y="8"/>
      <point x="112" y="65" type="curve"/>
      <point x="112" y="300" type="line"/>
      <point x="169" y="347"/>
      <point x="240" y="366"/>
      <point x="300" y="373" type="curve"/>
      <point x="240" y="380"/>
      <point x="169" y="401"/>
      <point x="117" y="446" type="curve"/>
      <point x="117" y="655" type="line"/>
      <point x="196" y="712"/>
      <point x="276" y="730"/>
      <point x="360" y="730" type="curve" smooth="yes"/>
      <point x="444" y="730"/>
      <point x="524" y="712"/>
      <point x="603" y="655" type="curve"/>
      <point x="603" y="446" type="line"/>
      <point x="551" y="401"/>
      <point x="480" y="380"/>
      <point x="420" y="373" type="curve"/>
      <point x="480" y="366"/>
      <point x="551" y="347"/>
      <point x="608" y="300" type="curve"/>
    </contour>
    <contour>
      <point x="587" y="453" type="curve"/>
      <point x="587" y="647" type="line"/>
      <point x="514" y="700"/>
      <point x="437" y="715"/>
      <point x="360" y="715" type="curve" smooth="yes"/>
      <point x="283" y="715"/>
      <point x="206" y="700"/>
      <point x="133" y="647" type="curve"/>
      <point x="133" y="453" type="line"/>
      <point x="192" y="401"/>
      <point x="297" y="381"/>
      <point x="360" y="381" type="curve" smooth="yes"/>
      <point x="423" y="381"/>
      <point x="528" y="401"/>
    </contour>
    <contour>
      <point x="592" y="73" type="curve"/>
      <point x="592" y="293" type="line"/>
      <point x="524" y="346"/>
      <point x="426" y="365"/>
      <point x="360" y="365" type="curve" smooth="yes"/>
      <point x="294" y="365"/>
      <point x="196" y="346"/>
      <point x="128" y="293" type="curve"/>
      <point x="128" y="73" type="line"/>
      <point x="201" y="20"/>
      <point x="274" y="5"/>
      <point x="360" y="5" type="curve" smooth="yes"/>
      <point x="446" y="5"/>
      <point x="519" y="20"/>
    </contour>
  </outline>
</glyph>
<glyph name="nine" format="1">
  <advance width="704"/>
  <unicode hex="0039"/>
  <outline>
    <contour>
      <point x="592" y="68" type="line"/>
      <point x="526" y="11"/>
      <point x="427" y="-10"/>
      <point x="350" y="-10" type="curve" smooth="yes"/>
      <point x="273" y="-10"/>
      <point x="175" y="11"/>
      <point x="109" y="68" type="curve"/>
      <point x="109" y="178" type="line"/>
      <point x="125" y="178" type="line"/>
      <point x="125" y="77" type="line"/>
      <point x="185" y="27"/>
      <point x="275" y="5"/>
      <point x="350" y="5" type="curve" smooth="yes"/>
      <point x="425" y="5"/>
      <point x="516" y="27"/>
      <point x="576" y="77" type="curve"/>
      <point x="576" y="374" type="line"/>
      <point x="522" y="334"/>
      <point x="432" y="311"/>
      <point x="350" y="311" type="curve" smooth="yes"/>
      <point x="273" y="311"/>
      <point x="162" y="334"/>
      <point x="109" y="387" type="curve"/>
      <point x="109" y="652" type="line"/>
      <point x="175" y="709"/>
      <point x="273" y="730"/>
      <point x="350" y="730" type="curve" smooth="yes"/>
      <point x="427" y="730"/>
      <point x="526" y="709"/>
      <point x="592" y="652" type="curve"/>
    </contour>
    <contour>
      <point x="576" y="391" type="curve"/>
      <point x="576" y="643" type="line"/>
      <point x="516" y="693"/>
      <point x="425" y="715"/>
      <point x="350" y="715" type="curve" smooth="yes"/>
      <point x="275" y="715"/>
      <point x="185" y="693"/>
      <point x="125" y="643" type="curve"/>
      <point x="125" y="394" type="line"/>
      <point x="181" y="343"/>
      <point x="274" y="326"/>
      <point x="350" y="326" type="curve" smooth="yes"/>
      <point x="435" y="326"/>
      <point x="515" y="346"/>
    </contour>
  </outline>
</glyph>
<glyph name="colon" format="1">
  <advance width="210"/>
  <unicode hex="003A"/>
  <outline>
    <contour>
      <point x="113" y="375" type="line"/>
      <point x="97" y="375" type="line"/>
      <point x="97" y="480" type="line"/>
      <point x="113" y="480" type="line"/>
    </contour>
    <contour>
      <point x="113" y="0" type="line"/>
      <point x="97" y="0" type="line"/>
      <point x="97" y="105" type="line"/>
      <point x="113" y="105" type="line"/>
    </contour>
  </outline>
</glyph>
<glyph name="semicolon" format="1">
  <advance width="210"/>
  <unicode hex="003B"/>
  <outline>
    <contour>
      <point x="113" y="375" type="line"/>
      <point x="97" y="375" type="line"/>
      <point x="97" y="480" type="line"/>
      <point x="113" y="480" type="line"/>
    </contour>
    <contour>
      <point x="122" y="105" type="line"/>
      <point x="91" y="-70" type="line"/>
      <point x="75" y="-70" type="line"/>
      <point x="106" y="105" type="line"/>
    </contour>
  </outline>
</glyph>
<glyph name="less" format="1">
  <advance width="450"/>
  <unicode hex="003C"/>
  <outline>
    <contour>
      <point x="390" y="65" type="line"/>
      <point x="48" y="352" type="line"/>
      <point x="48" y="368" type="line"/>
      <point x="390" y="655" type="line"/>
      <point x="390" y="635" type="line"/>
      <point x="62" y="360" type="line"/>
      <point x="390" y="85" type="line"/>
    </contour>
  </outline>
</glyph>
<glyph name="equal" format="1">
  <advance width="460"/>
  <unicode hex="003D"/>
  <outline>
    <contour>
      <point x="390" y="482" type="line"/>
      <point x="70" y="482" type="line"/>
      <point x="70" y="497" type="line"/>
      <point x="390" y="497" type="line"/>
    </contour>
    <contour>
      <point x="390" y="242" type="line"/>
      <point x="70" y="242" type="line"/>
      <point x="70" y="257" type="line"/>
      <point x="390" y="257" type="line"/>
    </contour>
  </outline>
</glyph>
<glyph name="greater" format="1">
  <advance width="450"/>
  <unicode hex="003E"/>
  <outline>
    <contour>
      <point x="402" y="352" type="line"/>
      <point x="60" y="65" type="line"/>
      <point x="60" y="85" type="line"/>
      <point x="388" y="360" type="line"/>
      <point x="60" y="635" type="line"/>
      <point x="60" y="655" type="line"/>
      <point x="402" y="368" type="line"/>
    </contour>
  </outline>
</glyph>
<glyph name="question" format="1">
  <advance width="600"/>
  <unicode hex="003F"/>
  <outline>
    <contour>
      <point x="527" y="498" type="line"/>
      <point x="310" y="300" type="line"/>
      <point x="310" y="215" type="line"/>
      <point x="294" y="215" type="line"/>
      <point x="294" y="305" type="line"/>
      <point x="511" y="503" type="line"/>
      <point x="511" y="643" type="line"/>
      <point x="451" y="693"/>
      <point x="374" y="715"/>
      <point x="299" y="715" type="curve" smooth="yes"/>
      <point x="224" y="715"/>
      <point x="147" y="693"/>
      <point x="87" y="643" type="curve"/>
      <point x="87" y="542" type="line"/>
      <point x="71" y="542" type="line"/>
      <point x="71" y="652" type="line"/>
      <point x="137" y="709"/>
      <point x="222" y="730"/>
      <point x="299" y="730" type="curve" smooth="yes"/>
      <point x="376" y="730"/>
      <point x="461" y="709"/>
      <point x="527" y="652" type="curve"/>
    </contour>
    <contour>
      <point x="310" y="0" type="line"/>
      <point x="294" y="0" type="line"/>
      <point x="294" y="105" type="line"/>
      <point x="310" y="105" type="line"/>
    </contour>
  </outline>
</glyph>
<glyph name="at" format="1">
  <advance width="820"/>
  <unicode hex="0040"/>
  <outline>
    <contour>
      <point x="708" y="85" type="line"/>
      <point x="635" y="20"/>
      <point x="518" y="-10"/>
      <point x="410" y="-10" type="curve" smooth="yes"/>
      <point x="302" y="-10"/>
      <point x="185" y="20"/>
      <point x="112" y="85" type="curve"/>
      <point x="112" y="635" type="line"/>
      <point x="185" y="700"/>
      <point x="302" y="730"/>
      <point x="410" y="730" type="curve" smooth="yes"/>
      <point x="518" y="730"/>
      <point x="635" y="700"/>
      <point x="708" y="635" type="curve"/>
      <point x="708" y="353" type="line"/>
      <point x="541" y="353" type="line"/>
      <point x="541" y="233" type="line"/>
      <point x="507" y="208"/>
      <point x="461" y="197"/>
      <point x="410" y="197" type="curve" smooth="yes"/>
      <point x="359" y="197"/>
      <point x="313" y="208"/>
      <point x="279" y="233" type="curve"/>
      <point x="279" y="487" type="line"/>
      <point x="313" y="512"/>
      <point x="359" y="523"/>
      <point x="410" y="523" type="curve" smooth="yes"/>
      <point x="461" y="523"/>
      <point x="507" y="512"/>
      <point x="541" y="487" type="curve"/>
      <point x="541" y="368" type="line"/>
      <point x="692" y="368" type="line"/>
      <point x="692" y="629" type="line"/>
      <point x="621" y="689"/>
      <point x="505" y="715"/>
      <point x="410" y="715" type="curve" smooth="yes"/>
      <point x="315" y="715"/>
      <point x="199" y="689"/>
      <point x="128" y="629" type="curve"/>
      <point x="128" y="91" type="line"/>
      <point x="199" y="31"/>
      <point x="315" y="5"/>
      <point x="410" y="5" type="curve" smooth="yes"/>
      <point x="505" y="5"/>
      <point x="621" y="31"/>
      <point x="692" y="91" type="curve"/>
      <point x="692" y="178" type="line"/>
      <point x="708" y="178" type="line"/>
    </contour>
    <contour>
      <point x="525" y="242" type="curve"/>
      <point x="525" y="478" type="line"/>
      <point x="497" y="498"/>
      <point x="457" y="508"/>
      <point x="410" y="508" type="curve" smooth="yes"/>
      <point x="363" y="508"/>
      <point x="323" y="498"/>
      <point x="295" y="478" type="curve"/>
      <point x="295" y="242" type="line"/>
      <point x="323" y="222"/>
      <point x="363" y="212"/>
      <point x="410" y="212" type="curve" smooth="yes"/>
      <point x="457" y="212"/>
      <point x="497" y="222"/>
    </contour>
  </outline>
</glyph>
<glyph name="A" format="1">
  <advance width="760"/>
  <unicode hex="0041"/>
  <outline>
    <contour>
      <point x="638" y="0" type="line"/>
      <point x="622" y="0" type="line"/>
      <point x="622" y="316" type="line"/>
      <point x="138" y="316" type="line"/>
      <point x="138" y="0" type="line"/>
      <point x="122" y="0" type="line"/>
      <point x="122" y="646" type="line"/>
      <point x="202" y="706"/>
      <point x="291" y="730"/>
      <point x="380" y="730" type="curve" smooth="yes"/>
      <point x="469" y="730"/>
      <point x="558" y="706"/>
      <point x="638" y="646" type="curve"/>
    </contour>
    <contour>
      <point x="622" y="331" type="line"/>
      <point x="622" y="638" type="line"/>
      <point x="545" y="694"/>
      <point x="466" y="715"/>
      <point x="380" y="715" type="curve" smooth="yes"/>
      <point x="294" y="715"/>
      <point x="215" y="694"/>
      <point x="138" y="638" type="curve"/>
      <point x="138" y="331" type="line"/>
    </contour>
  </outline>
</glyph>
<glyph name="B" format="1">
  <advance width="703"/>
  <unicode hex="0042"/>
  <outline>
    <contour>
      <point x="606" y="98" type="line"/>
      <point x="541" y="23"/>
      <point x="457" y="0"/>
      <point x="369" y="0" type="curve" smooth="yes"/>
      <point x="127" y="0" type="line"/>
      <point x="127" y="720" type="line"/>
      <point x="365" y="720" type="line" smooth="yes"/>
      <point x="457" y="720"/>
      <point x="536" y="698"/>
      <point x="601" y="622" type="curve"/>
      <point x="601" y="449" type="line"/>
      <point x="557" y="402"/>
      <point x="493" y="376"/>
      <point x="445" y="373" type="curve"/>
      <point x="493" y="369"/>
      <point x="557" y="346"/>
      <point x="606" y="296" type="curve"/>
    </contour>
    <contour>
      <point x="585" y="456" type="curve"/>
      <point x="585" y="614" type="line"/>
      <point x="523" y="686"/>
      <point x="446" y="705"/>
      <point x="365" y="705" type="curve" smooth="yes"/>
      <point x="143" y="705" type="line"/>
      <point x="143" y="380" type="line"/>
      <point x="379" y="380" type="line" smooth="yes"/>
      <point x="457" y="380"/>
      <point x="535" y="401"/>
    </contour>
    <contour>
      <point x="590" y="104" type="curve"/>
      <point x="590" y="289" type="line"/>
      <point x="532" y="346"/>
      <point x="460" y="365"/>
      <point x="387" y="365" type="curve" smooth="yes"/>
      <point x="143" y="365" type="line"/>
      <point x="143" y="15" type="line"/>
      <point x="369" y="15" type="line" smooth="yes"/>
      <point x="450" y="15"/>
      <point x="528" y="34"/>
    </contour>
  </outline>
</glyph>
<glyph name="C" format="1">
  <advance width="750"/>
  <unicode hex="0043"/>
  <outline>
    <contour>
      <point x="638" y="78" type="line"/>
      <point x="558" y="15"/>
      <point x="464" y="-10"/>
      <point x="375" y="-10" type="curve" smooth="yes"/>
      <point x="286" y="-10"/>
      <point x="192" y="15"/>
      <point x="112" y="78" type="curve"/>
      <point x="112" y="642" type="line"/>
      <point x="192" y="705"/>
      <point x="286" y="730"/>
      <point x="375" y="730" type="curve" smooth="yes"/>
      <point x="464" y="730"/>
      <point x="558" y="705"/>
      <point x="638" y="642" type="curve"/>
      <point x="638" y="542" type="line"/>
      <point x="622" y="542" type="line"/>
      <point x="622" y="634" type="line"/>
      <point x="545" y="693"/>
      <point x="461" y="715"/>
      <point x="375" y="715" type="curve" smooth="yes"/>
      <point x="289" y="715"/>
      <point x="205" y="693"/>
      <point x="128" y="634" type="curve"/>
      <point x="128" y="85" type="line"/>
      <point x="205" y="26"/>
      <point x="289" y="5"/>
      <point x="375" y="5" type="curve" smooth="yes"/>
      <point x="461" y="5"/>
      <point x="545" y="26"/>
      <point x="622" y="85" type="curve"/>
      <point x="622" y="178" type="line"/>
      <point x="638" y="178" type="line"/>
    </contour>
  </outline>
</glyph>
<glyph name="D" format="1">
  <advance width="758"/>
  <unicode hex="0044"/>
  <outline>
    <contour>
      <point x="646" y="122" type="line"/>
      <point x="579" y="46"/>
      <point x="485" y="0"/>
      <point x="333" y="0" type="curve" smooth="yes"/>
      <point x="127" y="0" type="line"/>
      <point x="127" y="720" type="line"/>
      <point x="333" y="720" type="line" smooth="yes"/>
      <point x="485" y="720"/>
      <point x="579" y="674"/>
      <point x="646" y="598" type="curve"/>
    </contour>
    <contour>
      <point x="630" y="129" type="curve"/>
      <point x="630" y="591" type="line"/>
      <point x="567" y="662"/>
      <point x="478" y="705"/>
      <point x="333" y="705" type="curve" smooth="yes"/>
      <point x="143" y="705" type="line"/>
      <point x="143" y="15" type="line"/>
      <point x="333" y="15" type="line" smooth="yes"/>
      <point x="478" y="15"/>
      <point x="567" y="58"/>
    </contour>
  </outline>
</glyph>
<glyph name="E" format="1">
  <advance width="750"/>
  <unicode hex="0045"/>
  <outline>
    <contour>
      <point x="638" y="69" type="line"/>
      <point x="558" y="13"/>
      <point x="464" y="-10"/>
      <point x="375" y="-10" type="curve" smooth="yes"/>
      <point x="286" y="-10"/>
      <point x="192" y="13"/>
      <point x="112" y="69" type="curve"/>
      <point x="112" y="650" type="line"/>
      <point x="192" y="707"/>
      <point x="286" y="730"/>
      <point x="375" y="730" type="curve" smooth="yes"/>
      <point x="464" y="730"/>
      <point x="558" y="707"/>
      <point x="638" y="650" type="curve"/>
      <point x="638" y="542" type="line"/>
      <point x="622" y="542" type="line"/>
      <point x="622" y="642" type="line"/>
      <point x="545" y="695"/>
      <point x="461" y="715"/>
      <point x="375" y="715" type="curve" smooth="yes"/>
      <point x="289" y="715"/>
      <point x="205" y="695"/>
      <point x="128" y="642" type="curve"/>
      <point x="128" y="379" type="line"/>
      <point x="462" y="379" type="line"/>
      <point x="462" y="364" type="line"/>
      <point x="128" y="364" type="line"/>
      <point x="128" y="77" type="line"/>
      <point x="205" y="24"/>
      <point x="289" y="5"/>
      <point x="375" y="5" type="curve" smooth="yes"/>
      <point x="461" y="5"/>
      <point x="545" y="24"/>
      <point x="622" y="77" type="curve"/>
      <point x="622" y="178" type="line"/>
      <point x="638" y="178" type="line"/>
    </contour>
  </outline>
</glyph>
<glyph name="F" format="1">
  <advance width="685"/>
  <unicode hex="0046"/>
  <outline>
    <contour>
      <point x="608" y="542" type="line"/>
      <point x="592" y="542" type="line"/>
      <point x="592" y="647" type="line"/>
      <point x="515" y="700"/>
      <point x="433" y="715"/>
      <point x="360" y="715" type="curve" smooth="yes"/>
      <point x="287" y="715"/>
      <point x="205" y="700"/>
      <point x="128" y="647" type="curve"/>
      <point x="128" y="353" type="line"/>
      <point x="452" y="353" type="line"/>
      <point x="452" y="338" type="line"/>
      <point x="128" y="338" type="line"/>
      <point x="128" y="0" type="line"/>
      <point x="112" y="0" type="line"/>
      <point x="112" y="655" type="line"/>
      <point x="192" y="712"/>
      <point x="280" y="730"/>
      <point x="360" y="730" type="curve" smooth="yes"/>
      <point x="440" y="730"/>
      <point x="528" y="712"/>
      <point x="608" y="655" type="curve"/>
    </contour>
  </outline>
</glyph>
<glyph name="G" format="1">
  <advance width="760"/>
  <unicode hex="0047"/>
  <outline>
    <contour>
      <point x="648" y="78" type="line"/>
      <point x="568" y="15"/>
      <point x="469" y="-10"/>
      <point x="380" y="-10" type="curve" smooth="yes"/>
      <point x="291" y="-10"/>
      <point x="192" y="15"/>
      <point x="112" y="78" type="curve"/>
      <point x="112" y="642" type="line"/>
      <point x="192" y="705"/>
      <point x="291" y="730"/>
      <point x="380" y="730" type="curve" smooth="yes"/>
      <point x="469" y="730"/>
      <point x="568" y="705"/>
      <point x="648" y="642" type="curve"/>
      <point x="648" y="542" type="line"/>
      <point x="632" y="542" type="line"/>
      <point x="632" y="634" type="line"/>
      <point x="555" y="693"/>
      <point x="466" y="715"/>
      <point x="380" y="715" type="curve" smooth="yes"/>
      <point x="294" y="715"/>
      <point x="205" y="693"/>
      <point x="128" y="634" type="curve"/>
      <point x="128" y="85" type="line"/>
      <point x="205" y="26"/>
      <point x="294" y="5"/>
      <point x="380" y="5" type="curve" smooth="yes"/>
      <point x="466" y="5"/>
      <point x="555" y="26"/>
      <point x="632" y="85" type="curve"/>
      <point x="632" y="331" type="line"/>
      <point x="433" y="331" type="line"/>
      <point x="433" y="346" type="line"/>
      <point x="648" y="346" type="line"/>
    </contour>
  </outline>
</glyph>
<glyph name="H" format="1">
  <advance width="775"/>
  <unicode hex="0048"/>
  <outline>
    <contour>
      <point x="648" y="0" type="line"/>
      <point x="632" y="0" type="line"/>
      <point x="632" y="364" type="line"/>
      <point x="143" y="364" type="line"/>
      <point x="143" y="0" type="line"/>
      <point x="127" y="0" type="line"/>
      <point x="127" y="720" type="line"/>
      <point x="143" y="720" type="line"/>
      <point x="143" y="379" type="line"/>
      <point x="632" y="379" type="line"/>
      <point x="632" y="720" type="line"/>
      <point x="648" y="720" type="line"/>
    </contour>
  </outline>
</glyph>
<glyph name="I" format="1">
  <advance width="280"/>
  <unicode hex="0049"/>
  <outline>
    <contour>
      <point x="148" y="0" type="line"/>
      <point x="132" y="0" type="line"/>
      <point x="132" y="720" type="line"/>
      <point x="148" y="720" type="line"/>
    </contour>
  </outline>
</glyph>
<glyph name="J" format="1">
  <advance width="450"/>
  <unicode hex="004A"/>
  <outline>
    <contour>
      <point x="328" y="98" type="line"/>
      <point x="263" y="23"/>
      <point x="179" y="0"/>
      <point x="91" y="0" type="curve" smooth="yes"/>
      <point x="77" y="0" type="line"/>
      <point x="77" y="15" type="line"/>
      <point x="91" y="15" type="line" smooth="yes"/>
      <point x="172" y="15"/>
      <point x="250" y="34"/>
      <point x="312" y="104" type="curve"/>
      <point x="312" y="720" type="line"/>
      <point x="328" y="720" type="line"/>
    </contour>
  </outline>
</glyph>
<glyph name="K" format="1">
  <advance width="745"/>
  <unicode hex="004B"/>
  <outline>
    <contour>
      <point x="626" y="0" type="line"/>
      <point x="610" y="0" type="line"/>
      <point x="610" y="289" type="line"/>
      <point x="552" y="346"/>
      <point x="480" y="365"/>
      <point x="407" y="365" type="curve" smooth="yes"/>
      <point x="143" y="365" type="line"/>
      <point x="143" y="0" type="line"/>
      <point x="127" y="0" type="line"/>
      <point x="127" y="720" type="line"/>
      <point x="143" y="720" type="line"/>
      <point x="143" y="380" type="line"/>
      <point x="399" y="380" type="line" smooth="yes"/>
      <point x="477" y="380"/>
      <point x="555" y="401"/>
      <point x="605" y="456" type="curve"/>
      <point x="605" y="720" type="line"/>
      <point x="621" y="720" type="line"/>
      <point x="621" y="449" type="line"/>
      <point x="577" y="402"/>
      <point x="513" y="376"/>
      <point x="465" y="373" type="curve"/>
      <point x="513" y="369"/>
      <point x="577" y="346"/>
      <point x="626" y="296" type="curve"/>
    </contour>
  </outline>
</glyph>
<glyph name="L" format="1">
  <advance width="615"/>
  <unicode hex="004C"/>
  <outline>
    <contour>
      <point x="548" y="0" type="line"/>
      <point x="127" y="0" type="line"/>
      <point x="127" y="720" type="line"/>
      <point x="143" y="720" type="line"/>
      <point x="143" y="15" type="line"/>
      <point x="548" y="15" type="line"/>
    </contour>
  </outline>
</glyph>
<glyph name="M" format="1">
  <advance width="930"/>
  <unicode hex="004D"/>
  <outline>
    <contour>
      <point x="808" y="0" type="line"/>
      <point x="792" y="0" type="line"/>
      <point x="792" y="641" type="line"/>
      <point x="706" y="692"/>
      <point x="584" y="714"/>
      <point x="473" y="715" type="curve"/>
      <point x="473" y="0" type="line"/>
      <point x="457" y="0" type="line"/>
      <point x="457" y="715" type="line"/>
      <point x="346" y="714"/>
      <point x="224" y="692"/>
      <point x="138" y="641" type="curve"/>
      <point x="138" y="0" type="line"/>
      <point x="122" y="0" type="line"/>
      <point x="122" y="650" type="line"/>
      <point x="217" y="705"/>
      <point x="339" y="730"/>
      <point x="465" y="730" type="curve" smooth="yes"/>
      <point x="591" y="730"/>
      <point x="713" y="705"/>
      <point x="808" y="650" type="curve"/>
    </contour>
  </outline>
</glyph>
<glyph name="N" format="1">
  <advance width="780"/>
  <unicode hex="004E"/>
  <outline>
    <contour>
      <point x="658" y="0" type="line"/>
      <point x="642" y="0" type="line"/>
      <point x="642" y="625" type="line"/>
      <point x="565" y="691"/>
      <point x="476" y="715"/>
      <point x="390" y="715" type="curve" smooth="yes"/>
      <point x="304" y="715"/>
      <point x="215" y="691"/>
      <point x="138" y="625" type="curve"/>
      <point x="138" y="0" type="line"/>
      <point x="122" y="0" type="line"/>
      <point x="122" y="632" type="line"/>
      <point x="202" y="702"/>
      <point x="301" y="730"/>
      <point x="390" y="730" type="curve" smooth="yes"/>
      <point x="479" y="730"/>
      <point x="578" y="702"/>
      <point x="658" y="632" type="curve"/>
    </contour>
  </outline>
</glyph>
<glyph name="O" format="1">
  <advance width="780"/>
  <unicode hex="004F"/>
  <outline>
    <contour>
      <point x="668" y="93" type="line"/>
      <point x="588" y="23"/>
      <point x="495" y="-10"/>
      <point x="390" y="-10" type="curve" smooth="yes"/>
      <point x="285" y="-10"/>
      <point x="192" y="23"/>
      <point x="112" y="93" type="curve"/>
      <point x="112" y="627" type="line"/>
      <point x="192" y="697"/>
      <point x="285" y="730"/>
      <point x="390" y="730" type="curve" smooth="yes"/>
      <point x="495" y="730"/>
      <point x="588" y="697"/>
      <point x="668" y="627" type="curve"/>
    </contour>
    <contour>
      <point x="652" y="100" type="curve"/>
      <point x="652" y="620" type="line"/>
      <point x="575" y="686"/>
      <point x="491" y="715"/>
      <point x="390" y="715" type="curve" smooth="yes"/>
      <point x="289" y="715"/>
      <point x="205" y="686"/>
      <point x="128" y="620" type="curve"/>
      <point x="128" y="100" type="line"/>
      <point x="205" y="34"/>
      <point x="289" y="5"/>
      <point x="390" y="5" type="curve" smooth="yes"/>
      <point x="491" y="5"/>
      <point x="575" y="34"/>
    </contour>
  </outline>
</glyph>
<glyph name="P" format="1">
  <advance width="655"/>
  <unicode hex="0050"/>
  <outline>
    <contour>
      <point x="576" y="398" type="line"/>
      <point x="511" y="322"/>
      <point x="432" y="300"/>
      <point x="340" y="300" type="curve" smooth="yes"/>
      <point x="143" y="300" type="line"/>
      <point x="143" y="0" type="line"/>
      <point x="127" y="0" type="line"/>
      <point x="127" y="720" type="line"/>
      <point x="340" y="720" type="line" smooth="yes"/>
      <point x="432" y="720"/>
      <point x="511" y="698"/>
      <point x="576" y="622" type="curve"/>
    </contour>
    <contour>
      <point x="560" y="406" type="curve"/>
      <point x="560" y="614" type="line"/>
      <point x="498" y="686"/>
      <point x="421" y="705"/>
      <point x="340" y="705" type="curve" smooth="yes"/>
      <point x="143" y="705" type="line"/>
      <point x="143" y="315" type="line"/>
      <point x="340" y="315" type="line" smooth="yes"/>
      <point x="421" y="315"/>
      <point x="498" y="334"/>
    </contour>
  </outline>
</glyph>
<glyph name="Q" format="1">
  <advance width="780"/>
  <unicode hex="0051"/>
  <outline>
    <contour>
      <point x="668" y="93" type="line"/>
      <point x="590" y="25"/>
      <point x="500" y="-8"/>
      <point x="398" y="-10" type="curve"/>
      <point x="398" y="-125" type="line"/>
      <point x="382" y="-125" type="line"/>
      <point x="382" y="-10" type="line"/>
      <point x="280" y="-8"/>
      <point x="190" y="25"/>
      <point x="112" y="93" type="curve"/>
      <point x="112" y="627" type="line"/>
      <point x="192" y="697"/>
      <point x="285" y="730"/>
      <point x="390" y="730" type="curve" smooth="yes"/>
      <point x="495" y="730"/>
      <point x="588" y="697"/>
      <point x="668" y="627" type="curve"/>
    </contour>
    <contour>
      <point x="652" y="100" type="curve"/>
      <point x="652" y="620" type="line"/>
      <point x="575" y="686"/>
      <point x="491" y="715"/>
      <point x="390" y="715" type="curve" smooth="yes"/>
      <point x="289" y="715"/>
      <point x="205" y="686"/>
      <point x="128" y="620" type="curve"/>
      <point x="128" y="100" type="line"/>
      <point x="203" y="36"/>
      <point x="284" y="7"/>
      <point x="382" y="5" type="curve"/>
      <point x="382" y="141" type="line"/>
      <point x="398" y="141" type="line"/>
      <point x="398" y="5" type="line"/>
      <point x="496" y="7"/>
      <point x="577" y="36"/>
    </contour>
  </outline>
</glyph>
<glyph name="R" format="1">
  <advance width="715"/>
  <unicode hex="0052"/>
  <outline>
    <contour>
      <point x="606" y="0" type="line"/>
      <point x="590" y="0" type="line"/>
      <point x="590" y="259" type="line"/>
      <point x="532" y="316"/>
      <point x="460" y="335"/>
      <point x="387" y="335" type="curve" smooth="yes"/>
      <point x="143" y="335" type="line"/>
      <point x="143" y="0" type="line"/>
      <point x="127" y="0" type="line"/>
      <point x="127" y="720" type="line"/>
      <point x="365" y="720" type="line" smooth="yes"/>
      <point x="457" y="720"/>
      <point x="536" y="698"/>
      <point x="601" y="622" type="curve"/>
      <point x="601" y="419" type="line"/>
      <point x="557" y="372"/>
      <point x="493" y="346"/>
      <point x="445" y="343" type="curve"/>
      <point x="493" y="339"/>
      <point x="557" y="316"/>
      <point x="606" y="266" type="curve"/>
    </contour>
    <contour>
      <point x="585" y="426" type="curve"/>
      <point x="585" y="614" type="line"/>
      <point x="523" y="686"/>
      <point x="446" y="705"/>
      <point x="365" y="705" type="curve" smooth="yes"/>
      <point x="143" y="705" type="line"/>
      <point x="143" y="350" type="line"/>
      <point x="379" y="350" type="line" smooth="yes"/>
      <point x="457" y="350"/>
      <point x="535" y="371"/>
    </contour>
  </outline>
</glyph>
<glyph name="S" format="1">
  <advance width="720"/>
  <unicode hex="0053"/>
  <outline>
    <contour>
      <point x="608" y="69" type="line"/>
      <point x="528" y="13"/>
      <point x="449" y="-10"/>
      <point x="360" y="-10" type="curve" smooth="yes"/>
      <point x="271" y="-10"/>
      <point x="192" y="13"/>
      <point x="112" y="69" type="curve"/>
      <point x="112" y="178" type="line"/>
      <point x="128" y="178" type="line"/>
      <point x="128" y="77" type="line"/>
      <point x="205" y="24"/>
      <point x="274" y="5"/>
      <point x="360" y="5" type="curve" smooth="yes"/>
      <point x="446" y="5"/>
      <point x="515" y="24"/>
      <point x="592" y="77" type="curve"/>
      <point x="592" y="252" type="line"/>
      <point x="115" y="446" type="line"/>
      <point x="115" y="650" type="line"/>
      <point x="195" y="707"/>
      <point x="271" y="730"/>
      <point x="360" y="730" type="curve" smooth="yes"/>
      <point x="449" y="730"/>
      <point x="525" y="707"/>
      <point x="605" y="650" type="curve"/>
      <point x="605" y="542" type="line"/>
      <point x="589" y="542" type="line"/>
      <point x="589" y="642" type="line"/>
      <point x="512" y="695"/>
      <point x="446" y="715"/>
      <point x="360" y="715" type="curve" smooth="yes"/>
      <point x="274" y="715"/>
      <point x="208" y="695"/>
      <point x="131" y="642" type="curve"/>
      <point x="131" y="457" type="line"/>
      <point x="608" y="262" type="line"/>
    </contour>
  </outline>
</glyph>
<glyph name="T" format="1">
  <advance width="640"/>
  <unicode hex="0054"/>
  <outline>
    <contour>
      <point x="588" y="705" type="line"/>
      <point x="328" y="705" type="line"/>
      <point x="328" y="0" type="line"/>
      <point x="312" y="0" type="line"/>
      <point x="312" y="705" type="line"/>
      <point x="52" y="705" type="line"/>
      <point x="52" y="720" type="line"/>
      <point x="588" y="720" type="line"/>
    </contour>
  </outline>
</glyph>
<glyph name="U" format="1">
  <advance width="780"/>
  <unicode hex="0055"/>
  <outline>
    <contour>
      <point x="658" y="88" type="line"/>
      <point x="578" y="18"/>
      <point x="479" y="-10"/>
      <point x="390" y="-10" type="curve" smooth="yes"/>
      <point x="301" y="-10"/>
      <point x="202" y="18"/>
      <point x="122" y="88" type="curve"/>
      <point x="122" y="720" type="line"/>
      <point x="138" y="720" type="line"/>
      <point x="138" y="95" type="line"/>
      <point x="215" y="29"/>
      <point x="304" y="5"/>
      <point x="390" y="5" type="curve" smooth="yes"/>
      <point x="476" y="5"/>
      <point x="565" y="29"/>
      <point x="642" y="95" type="curve"/>
      <point x="642" y="720" type="line"/>
      <point x="658" y="720" type="line"/>
    </contour>
  </outline>
</glyph>
<glyph name="V" format="1">
  <advance width="770"/>
  <unicode hex="0056"/>
  <outline>
    <contour>
      <point x="653" y="553" type="line"/>
      <point x="653" y="287"/>
      <point x="540" y="120"/>
      <point x="393" y="-5" type="curve"/>
      <point x="377" y="-5" type="line"/>
      <point x="230" y="120"/>
      <point x="117" y="287"/>
      <point x="117" y="553" type="curve" smooth="yes"/>
      <point x="117" y="720" type="line"/>
      <point x="133" y="720" type="line"/>
      <point x="133" y="553" type="line" smooth="yes"/>
      <point x="133" y="293"/>
      <point x="241" y="132"/>
      <point x="385" y="9" type="curve"/>
      <point x="529" y="132"/>
      <point x="637" y="293"/>
      <point x="637" y="553" type="curve" smooth="yes"/>
      <point x="637" y="720" type="line"/>
      <point x="653" y="720" type="line"/>
    </contour>
  </outline>
</glyph>
<glyph name="W" format="1">
  <advance width="930"/>
  <unicode hex="0057"/>
  <outline>
    <contour>
      <point x="808" y="70" type="line"/>
      <point x="713" y="15"/>
      <point x="591" y="-10"/>
      <point x="465" y="-10" type="curve" smooth="yes"/>
      <point x="339" y="-10"/>
      <point x="217" y="15"/>
      <point x="122" y="70" type="curve"/>
      <point x="122" y="720" type="line"/>
      <point x="138" y="720" type="line"/>
      <point x="138" y="79" type="line"/>
      <point x="224" y="28"/>
      <point x="346" y="6"/>
      <point x="457" y="5" type="curve"/>
      <point x="457" y="720" type="line"/>
      <point x="473" y="720" type="line"/>
      <point x="473" y="5" type="line"/>
      <point x="584" y="6"/>
      <point x="706" y="28"/>
      <point x="792" y="79" type="curve"/>
      <point x="792" y="720" type="line"/>
      <point x="808" y="720" type="line"/>
    </contour>
  </outline>
</glyph>
<glyph name="X" format="1">
  <advance width="708"/>
  <unicode hex="0058"/>
  <outline>
    <contour>
      <point x="588" y="0" type="line"/>
      <point x="572" y="0" type="line"/>
      <point x="572" y="289" type="line"/>
      <point x="514" y="346"/>
      <point x="443" y="365"/>
      <point x="353" y="365" type="curve" smooth="yes"/>
      <point x="263" y="365"/>
      <point x="192" y="346"/>
      <point x="134" y="289" type="curve"/>
      <point x="134" y="0" type="line"/>
      <point x="118" y="0" type="line"/>
      <point x="118" y="296" type="line"/>
      <point x="167" y="346"/>
      <point x="231" y="369"/>
      <point x="279" y="373" type="curve"/>
      <point x="231" y="376"/>
      <point x="167" y="402"/>
      <point x="123" y="449" type="curve"/>
      <point x="123" y="720" type="line"/>
      <point x="139" y="720" type="line"/>
      <point x="139" y="456" type="line"/>
      <point x="189" y="401"/>
      <point x="264" y="380"/>
      <point x="353" y="380" type="curve" smooth="yes"/>
      <point x="442" y="380"/>
      <point x="517" y="401"/>
      <point x="567" y="456" type="curve"/>
      <point x="567" y="720" type="line"/>
      <point x="583" y="720" type="line"/>
      <point x="583" y="449" type="line"/>
      <point x="539" y="402"/>
      <point x="475" y="376"/>
      <point x="427" y="373" type="curve"/>
      <point x="475" y="369"/>
      <point x="539" y="346"/>
      <point x="588" y="296" type="curve"/>
    </contour>
  </outline>
</glyph>
<glyph name="Z" format="1">
  <advance width="690"/>
  <unicode hex="005A"/>
  <outline>
    <contour>
      <point x="583" y="0" type="line"/>
      <point x="97" y="0" type="line"/>
      <point x="97" y="11" type="line"/>
      <point x="562" y="705" type="line"/>
      <point x="117" y="705" type="line"/>
      <point x="117" y="720" type="line"/>
      <point x="583" y="720" type="line"/>
      <point x="583" y="709" type="line"/>
      <point x="118" y="15" type="line"/>
      <point x="583" y="15" type="line"/>
    </contour>
  </outline>
</glyph>
<glyph name="bracketleft" format="1">
  <advance width="365"/>
  <unicode hex="005B"/>
  <outline>
    <contour>
      <point x="284" y="0" type="line"/>
      <point x="127" y="0" type="line"/>
      <point x="127" y="720" type="line"/>
      <point x="284" y="720" type="line"/>
      <point x="284" y="705" type="line"/>
      <point x="143" y="705" type="line"/>
      <point x="143" y="15" type="line"/>
      <point x="284" y="15" type="line"/>
    </contour>
  </outline>
</glyph>
<glyph name="backslash" format="1">
  <advance width="460"/>
  <unicode hex="005C"/>
  <outline>
    <contour>
      <point x="380" y="0" type="line"/>
      <point x="364" y="0" type="line"/>
      <point x="80" y="720" type="line"/>
      <point x="96" y="720" type="line"/>
    </contour>
  </outline>
</glyph>
<glyph name="bracketright" format="1">
  <advance width="365"/>
  <unicode hex="005D"/>
  <outline>
    <contour>
      <point x="238" y="0" type="line"/>
      <point x="81" y="0" type="line"/>
      <point x="81" y="15" type="line"/>
      <point x="222" y="15" type="line"/>
      <point x="222" y="705" type="line"/>
      <point x="81" y="705" type="line"/>
      <point x="81" y="720" type="line"/>
      <point x="238" y="720" type="line"/>
    </contour>
  </outline>
</glyph>
<glyph name="asciicircum" format="1">
  <advance width="540"/>
  <unicode hex="005E"/>
  <outline>
    <contour>
      <point x="460" y="350" type="line"/>
      <point x="444" y="350" type="line"/>
      <point x="270" y="703" type="line"/>
      <point x="96" y="350" type="line"/>
      <point x="80" y="350" type="line"/>
      <point x="265" y="725" type="line"/>
      <point x="275" y="725" type="line"/>
    </contour>
  </outline>
</glyph>
<glyph name="grave" format="1">
  <advance width="500"/>
  <unicode hex="0060"/>
  <outline>
    <contour>
      <point x="307" y="555" type="line"/>
      <point x="287" y="555" type="line"/>
      <point x="193" y="690" type="line"/>
      <point x="213" y="690" type="line"/>
    </contour>
  </outline>
</glyph>
<glyph name="a" format="1">
  <advance width="523"/>
  <unicode hex="0061"/>
  <outline>
    <contour>
      <point x="436" y="48" type="line"/>
      <point x="387" y="7"/>
      <point x="321" y="-10"/>
      <point x="260" y="-10" type="curve" smooth="yes"/>
      <point x="199" y="-10"/>
      <point x="133" y="7"/>
      <point x="84" y="48" type="curve"/>
      <point x="84" y="222" type="line"/>
      <point x="133" y="255"/>
      <point x="199" y="269"/>
      <point x="260" y="269" type="curve" smooth="yes"/>
      <point x="324" y="269"/>
      <point x="376" y="254"/>
      <point x="420" y="231" type="curve"/>
      <point x="420" y="424" type="line"/>
      <point x="373" y="464"/>
      <point x="307" y="475"/>
      <point x="260" y="475" type="curve" smooth="yes"/>
      <point x="213" y="475"/>
      <point x="147" y="464"/>
      <point x="100" y="424" type="curve"/>
      <point x="100" y="352" type="line"/>
      <point x="84" y="352" type="line"/>
      <point x="84" y="432" type="line"/>
      <point x="133" y="473"/>
      <point x="199" y="490"/>
      <point x="260" y="490" type="curve" smooth="yes"/>
      <point x="321" y="490"/>
      <point x="387" y="473"/>
      <point x="436" y="432" type="curve"/>
    </contour>
    <contour>
      <point x="420" y="56" type="curve"/>
      <point x="420" y="215" type="line"/>
      <point x="370" y="241"/>
      <point x="322" y="254"/>
      <point x="260" y="254" type="curve" smooth="yes"/>
      <point x="213" y="254"/>
      <point x="147" y="245"/>
      <point x="100" y="212" type="curve"/>
      <point x="100" y="56" type="line"/>
      <point x="147" y="16"/>
      <point x="213" y="5"/>
      <point x="260" y="5" type="curve" smooth="yes"/>
      <point x="307" y="5"/>
      <point x="373" y="16"/>
    </contour>
  </outline>
</glyph>
<glyph name="d" format="1">
  <advance width="554"/>
  <unicode hex="0064"/>
  <outline>
    <contour>
      <point x="459" y="48" type="line"/>
      <point x="410" y="7"/>
      <point x="334" y="-10"/>
      <point x="273" y="-10" type="curve" smooth="yes"/>
      <point x="212" y="-10"/>
      <point x="136" y="7"/>
      <point x="87" y="48" type="curve"/>
      <point x="87" y="432" type="line"/>
      <point x="136" y="473"/>
      <point x="212" y="490"/>
      <point x="273" y="490" type="curve" smooth="yes"/>
      <point x="337" y="490"/>
      <point x="399" y="471"/>
      <point x="443" y="444" type="curve"/>
      <point x="443" y="720" type="line"/>
      <point x="459" y="720" type="line"/>
    </contour>
    <contour>
      <point x="443" y="56" type="curve"/>
      <point x="443" y="427" type="line"/>
      <point x="393" y="459"/>
      <point x="335" y="475"/>
      <point x="273" y="475" type="curve" smooth="yes"/>
      <point x="226" y="475"/>
      <point x="150" y="464"/>
      <point x="103" y="424" type="curve"/>
      <point x="103" y="56" type="line"/>
      <point x="150" y="16"/>
      <point x="226" y="5"/>
      <point x="273" y="5" type="curve" smooth="yes"/>
      <point x="320" y="5"/>
      <point x="396" y="16"/>
    </contour>
  </outline>
</glyph>
<glyph name="e" format="1">
  <advance width="523"/>
  <unicode hex="0065"/>
  <outline>
    <contour>
      <point x="439" y="48" type="line"/>
      <point x="390" y="7"/>
      <point x="324" y="-10"/>
      <point x="263" y="-10" type="curve" smooth="yes"/>
      <point x="202" y="-10"/>
      <point x="136" y="7"/>
      <point x="87" y="48" type="curve"/>
      <point x="87" y="432" type="line"/>
      <point x="136" y="473"/>
      <point x="202" y="490"/>
      <point x="263" y="490" type="curve" smooth="yes"/>
      <point x="324" y="490"/>
      <point x="390" y="473"/>
      <point x="439" y="432" type="curve"/>
      <point x="439" y="238" type="line"/>
      <point x="103" y="238" type="line"/>
      <point x="103" y="56" type="line"/>
      <point x="150" y="16"/>
      <point x="216" y="5"/>
      <point x="263" y="5" type="curve" smooth="yes"/>
      <point x="310" y="5"/>
      <point x="376" y="16"/>
      <point x="423" y="56" type="curve"/>
      <point x="423" y="128" type="line"/>
      <point x="439" y="128" type="line"/>
    </contour>
    <contour>
      <point x="423" y="253" type="line"/>
      <point x="423" y="424" type="line"/>
      <point x="376" y="464"/>
      <point x="310" y="475"/>
      <point x="263" y="475" type="curve" smooth="yes"/>
      <point x="216" y="475"/>
      <point x="150" y="464"/>
      <point x="103" y="424" type="curve"/>
      <point x="103" y="253" type="line"/>
    </contour>
  </outline>
</glyph>
<glyph name="h" format="1">
  <advance width="562"/>
  <unicode hex="0068"/>
  <outline>
    <contour>
      <point x="467" y="0" type="line"/>
      <point x="451" y="0" type="line"/>
      <point x="451" y="424" type="line"/>
      <point x="404" y="464"/>
      <point x="328" y="475"/>
      <point x="281" y="475" type="curve" smooth="yes"/>
      <point x="219" y="475"/>
      <point x="161" y="459"/>
      <point x="111" y="427" type="curve"/>
      <point x="111" y="0" type="line"/>
      <point x="95" y="0" type="line"/>
      <point x="95" y="720" type="line"/>
      <point x="111" y="720" type="line"/>
      <point x="111" y="444" type="line"/>
      <point x="155" y="471"/>
      <point x="217" y="490"/>
      <point x="281" y="490" type="curve" smooth="yes"/>
      <point x="342" y="490"/>
      <point x="418" y="473"/>
      <point x="467" y="432" type="curve"/>
    </contour>
  </outline>
</glyph>
<glyph name="i" format="1">
  <advance width="210"/>
  <unicode hex="0069"/>
  <outline>
    <contour>
      <point x="113" y="625" type="line"/>
      <point x="97" y="625" type="line"/>
      <point x="97" y="720" type="line"/>
      <point x="113" y="720" type="line"/>
    </contour>
    <contour>
      <point x="113" y="0" type="line"/>
      <point x="97" y="0" type="line"/>
      <point x="97" y="480" type="line"/>
      <point x="113" y="480" type="line"/>
    </contour>
  </outline>
</glyph>
<glyph name="j" format="1">
  <advance width="210"/>
  <unicode hex="006A"/>
  <outline>
    <contour>
      <point x="113" y="625" type="line"/>
      <point x="97" y="625" type="line"/>
      <point x="97" y="720" type="line"/>
      <point x="113" y="720" type="line"/>
    </contour>
    <contour>
      <point x="113" y="-131" type="line"/>
      <point x="86" y="-167"/>
      <point x="45" y="-180"/>
      <point x="-2" y="-180" type="curve" smooth="yes"/>
      <point x="-8" y="-180" type="line"/>
      <point x="-8" y="-165" type="line"/>
      <point x="-2" y="-165" type="line" smooth="yes"/>
      <point x="36" y="-165"/>
      <point x="74" y="-155"/>
      <point x="97" y="-126" type="curve"/>
      <point x="97" y="480" type="line"/>
      <point x="113" y="480" type="line"/>
    </contour>
  </outline>
</glyph>
<glyph name="k" format="1">
  <advance width="496"/>
  <unicode hex="006B"/>
  <outline>
    <contour>
      <point x="411" y="0" type="line"/>
      <point x="395" y="0" type="line"/>
      <point x="395" y="165" type="line"/>
      <point x="366" y="205"/>
      <point x="326" y="230"/>
      <point x="258" y="230" type="curve" smooth="yes"/>
      <point x="111" y="230" type="line"/>
      <point x="111" y="0" type="line"/>
      <point x="95" y="0" type="line"/>
      <point x="95" y="720" type="line"/>
      <point x="111" y="720" type="line"/>
      <point x="111" y="245" type="line"/>
      <point x="256" y="245" type="line" smooth="yes"/>
      <point x="332" y="245"/>
      <point x="365" y="272"/>
      <point x="390" y="305" type="curve"/>
      <point x="390" y="480" type="line"/>
      <point x="406" y="480" type="line"/>
      <point x="406" y="301" type="line"/>
      <point x="380" y="267"/>
      <point x="352" y="245"/>
      <point x="305" y="238" type="curve"/>
      <point x="352" y="229"/>
      <point x="383" y="209"/>
      <point x="411" y="170" type="curve"/>
    </contour>
  </outline>
</glyph>
<glyph name="m" format="1">
  <advance width="736"/>
  <unicode hex="006D"/>
  <outline>
    <contour>
      <point x="641" y="0" type="line"/>
      <point x="625" y="0" type="line"/>
      <point x="625" y="417" type="line"/>
      <point x="560" y="456"/>
      <point x="482" y="474"/>
      <point x="376" y="475" type="curve"/>
      <point x="376" y="0" type="line"/>
      <point x="360" y="0" type="line"/>
      <point x="360" y="475" type="line"/>
      <point x="254" y="474"/>
      <point x="176" y="456"/>
      <point x="111" y="417" type="curve"/>
      <point x="111" y="0" type="line"/>
      <point x="95" y="0" type="line"/>
      <point x="95" y="426" type="line"/>
      <point x="173" y="472"/>
      <point x="260" y="490"/>
      <point x="368" y="490" type="curve" smooth="yes"/>
      <point x="476" y="490"/>
      <point x="563" y="472"/>
      <point x="641" y="426" type="curve"/>
    </contour>
  </outline>
</glyph>
<glyph name="n" format="1">
  <advance width="552"/>
  <unicode hex="006E"/>
  <outline>
    <contour>
      <point x="457" y="0" type="line"/>
      <point x="441" y="0" type="line"/>
      <point x="441" y="424" type="line"/>
      <point x="394" y="464"/>
      <point x="323" y="475"/>
      <point x="276" y="475" type="curve" smooth="yes"/>
      <point x="229" y="475"/>
      <point x="158" y="464"/>
      <point x="111" y="424" type="curve"/>
      <point x="111" y="0" type="line"/>
      <point x="95" y="0" type="line"/>
      <point x="95" y="432" type="line"/>
      <point x="144" y="473"/>
      <point x="215" y="490"/>
      <point x="276" y="490" type="curve" smooth="yes"/>
      <point x="337" y="490"/>
      <point x="408" y="473"/>
      <point x="457" y="432" type="curve"/>
    </contour>
  </outline>
</glyph>
<glyph name="p" format="1">
  <advance width="554"/>
  <unicode hex="0070"/>
  <outline>
    <contour>
      <point x="467" y="48" type="line"/>
      <point x="418" y="7"/>
      <point x="342" y="-10"/>
      <point x="281" y="-10" type="curve" smooth="yes"/>
      <point x="217" y="-10"/>
      <point x="155" y="9"/>
      <point x="111" y="36" type="curve"/>
      <point x="111" y="-175" type="line"/>
      <point x="95" y="-175" type="line"/>
      <point x="95" y="432" type="line"/>
      <point x="144" y="473"/>
      <point x="220" y="490"/>
      <point x="281" y="490" type="curve" smooth="yes"/>
      <point x="342" y="490"/>
      <point x="418" y="473"/>
      <point x="467" y="432" type="curve"/>
    </contour>
    <contour>
      <point x="451" y="56" type="curve"/>
      <point x="451" y="424" type="line"/>
      <point x="404" y="464"/>
      <point x="328" y="475"/>
      <point x="281" y="475" type="curve" smooth="yes"/>
      <point x="234" y="475"/>
      <point x="158" y="464"/>
      <point x="111" y="424" type="curve"/>
      <point x="111" y="53" type="line"/>
      <point x="161" y="21"/>
      <point x="219" y="5"/>
      <point x="281" y="5" type="curve" smooth="yes"/>
      <point x="328" y="5"/>
      <point x="404" y="16"/>
    </contour>
  </outline>
</glyph>
<glyph name="q" format="1">
  <advance width="554"/>
  <unicode hex="0071"/>
  <outline>
    <contour>
      <point x="459" y="-175" type="line"/>
      <point x="443" y="-175" type="line"/>
      <point x="443" y="36" type="line"/>
      <point x="399" y="9"/>
      <point x="337" y="-10"/>
      <point x="273" y="-10" type="curve" smooth="yes"/>
      <point x="212" y="-10"/>
      <point x="136" y="7"/>
      <point x="87" y="48" type="curve"/>
      <point x="87" y="432" type="line"/>
      <point x="136" y="473"/>
      <point x="212" y="490"/>
      <point x="273" y="490" type="curve" smooth="yes"/>
      <point x="334" y="490"/>
      <point x="410" y="473"/>
      <point x="459" y="432" type="curve"/>
    </contour>
    <contour>
      <point x="443" y="53" type="curve"/>
      <point x="443" y="424" type="line"/>
      <point x="396" y="464"/>
      <point x="320" y="475"/>
      <point x="273" y="475" type="curve" smooth="yes"/>
      <point x="226" y="475"/>
      <point x="150" y="464"/>
      <point x="103" y="424" type="curve"/>
      <point x="103" y="56" type="line"/>
      <point x="150" y="16"/>
      <point x="226" y="5"/>
      <point x="273" y="5" type="curve" smooth="yes"/>
      <point x="335" y="5"/>
      <point x="393" y="21"/>
    </contour>
  </outline>
</glyph>
<glyph name="r" format="1">
  <advance width="322"/>
  <unicode hex="0072"/>
  <outline>
    <contour>
      <point x="287" y="470" type="line"/>
      <point x="238" y="470" type="line" smooth="yes"/>
      <point x="184" y="470"/>
      <point x="137" y="446"/>
      <point x="111" y="410" type="curve"/>
      <point x="111" y="0" type="line"/>
      <point x="95" y="0" type="line"/>
      <point x="95" y="417" type="line"/>
      <point x="128" y="460"/>
      <point x="182" y="485"/>
      <point x="239" y="485" type="curve" smooth="yes"/>
      <point x="287" y="485" type="line"/>
    </contour>
  </outline>
</glyph>
<glyph name="s" format="1">
  <advance width="522"/>
  <unicode hex="0073"/>
  <outline>
    <contour>
      <point x="429" y="42" type="line"/>
      <point x="380" y="6"/>
      <point x="323" y="-10"/>
      <point x="262" y="-10" type="curve" smooth="yes"/>
      <point x="201" y="-10"/>
      <point x="144" y="6"/>
      <point x="95" y="42" type="curve"/>
      <point x="95" y="128" type="line"/>
      <point x="111" y="128" type="line"/>
      <point x="111" y="51" type="line"/>
      <point x="158" y="15"/>
      <point x="215" y="5"/>
      <point x="262" y="5" type="curve" smooth="yes"/>
      <point x="309" y="5"/>
      <point x="366" y="15"/>
      <point x="413" y="51" type="curve"/>
      <point x="413" y="173" type="line"/>
      <point x="95" y="299" type="line"/>
      <point x="95" y="437" type="line"/>
      <point x="144" y="474"/>
      <point x="200" y="490"/>
      <point x="261" y="490" type="curve" smooth="yes"/>
      <point x="322" y="490"/>
      <point x="378" y="474"/>
      <point x="427" y="437" type="curve"/>
      <point x="427" y="352" type="line"/>
      <point x="411" y="352" type="line"/>
      <point x="411" y="429" type="line"/>
      <point x="364" y="465"/>
      <point x="308" y="475"/>
      <point x="261" y="475" type="curve" smooth="yes"/>
      <point x="214" y="475"/>
      <point x="158" y="465"/>
      <point x="111" y="429" type="curve"/>
      <point x="111" y="309" type="line"/>
      <point x="429" y="183" type="line"/>
    </contour>
  </outline>
</glyph>
<glyph name="t" format="1">
  <advance width="334"/>
  <unicode hex="0074"/>
  <outline>
    <contour>
      <point x="267" y="-5" type="line"/>
      <point x="252" y="-5" type="line" smooth="yes"/>
      <point x="205" y="-5"/>
      <point x="160" y="16"/>
      <point x="134" y="51" type="curve"/>
      <point x="134" y="465" type="line"/>
      <point x="60" y="465" type="line"/>
      <point x="60" y="480" type="line"/>
      <point x="134" y="480" type="line"/>
      <point x="134" y="640" type="line"/>
      <point x="150" y="640" type="line"/>
      <point x="150" y="480" type="line"/>
      <point x="265" y="480" type="line"/>
      <point x="265" y="465" type="line"/>
      <point x="150" y="465" type="line"/>
      <point x="150" y="57" type="line"/>
      <point x="174" y="28"/>
      <point x="209" y="10"/>
      <point x="253" y="10" type="curve" smooth="yes"/>
      <point x="267" y="10" type="line"/>
    </contour>
  </outline>
</glyph>
<glyph name="u" format="1">
  <advance width="552"/>
  <unicode hex="0075"/>
  <outline>
    <contour>
      <point x="457" y="48" type="line"/>
      <point x="408" y="7"/>
      <point x="337" y="-10"/>
      <point x="276" y="-10" type="curve" smooth="yes"/>
      <point x="215" y="-10"/>
      <point x="144" y="7"/>
      <point x="95" y="48" type="curve"/>
      <point x="95" y="480" type="line"/>
      <point x="111" y="480" type="line"/>
      <point x="111" y="56" type="line"/>
      <point x="158" y="16"/>
      <point x="229" y="5"/>
      <point x="276" y="5" type="curve" smooth="yes"/>
      <point x="323" y="5"/>
      <point x="394" y="16"/>
      <point x="441" y="56" type="curve"/>
      <point x="441" y="480" type="line"/>
      <point x="457" y="480" type="line"/>
    </contour>
  </outline>
</glyph>
<glyph name="v" format="1">
  <advance width="540"/>
  <unicode hex="0076"/>
  <outline>
    <contour>
      <point x="451" y="389" type="line"/>
      <point x="451" y="216"/>
      <point x="402" y="101"/>
      <point x="275" y="-5" type="curve"/>
      <point x="265" y="-5" type="line"/>
      <point x="138" y="101"/>
      <point x="89" y="216"/>
      <point x="89" y="389" type="curve" smooth="yes"/>
      <point x="89" y="480" type="line"/>
      <point x="105" y="480" type="line"/>
      <point x="105" y="389" type="line" smooth="yes"/>
      <point x="105" y="230"/>
      <point x="147" y="113"/>
      <point x="270" y="10" type="curve"/>
      <point x="393" y="113"/>
      <point x="435" y="230"/>
      <point x="435" y="389" type="curve" smooth="yes"/>
      <point x="435" y="480" type="line"/>
      <point x="451" y="480" type="line"/>
    </contour>
  </outline>
</glyph>
<glyph name="w" format="1">
  <advance width="736"/>
  <unicode hex="0077"/>
  <outline>
    <contour>
      <point x="641" y="54" type="line"/>
      <point x="563" y="8"/>
      <point x="476" y="-10"/>
      <point x="368" y="-10" type="curve" smooth="yes"/>
      <point x="260" y="-10"/>
      <point x="173" y="8"/>
      <point x="95" y="54" type="curve"/>
      <point x="95" y="480" type="line"/>
      <point x="111" y="480" type="line"/>
      <point x="111" y="63" type="line"/>
      <point x="176" y="24"/>
      <point x="254" y="6"/>
      <point x="360" y="5" type="curve"/>
      <point x="360" y="480" type="line"/>
      <point x="376" y="480" type="line"/>
      <point x="376" y="5" type="line"/>
      <point x="482" y="6"/>
      <point x="560" y="24"/>
      <point x="625" y="63" type="curve"/>
      <point x="625" y="480" type="line"/>
      <point x="641" y="480" type="line"/>
    </contour>
  </outline>
</glyph>
<glyph name="x" format="1">
  <advance width="530"/>
  <unicode hex="0078"/>
  <outline>
    <contour>
      <point x="438" y="0" type="line"/>
      <point x="422" y="0" type="line"/>
      <point x="422" y="168" type="line"/>
      <point x="376" y="214"/>
      <point x="317" y="229"/>
      <point x="265" y="229" type="curve" smooth="yes"/>
      <point x="213" y="229"/>
      <point x="154" y="214"/>
      <point x="108" y="168" type="curve"/>
      <point x="108" y="0" type="line"/>
      <point x="92" y="0" type="line"/>
      <point x="92" y="175" type="line"/>
      <point x="131" y="213"/>
      <point x="176" y="231"/>
      <point x="211" y="237" type="curve"/>
      <point x="176" y="243"/>
      <point x="131" y="261"/>
      <point x="96" y="299" type="curve"/>
      <point x="96" y="480" type="line"/>
      <point x="112" y="480" type="line"/>
      <point x="112" y="306" type="line"/>
      <point x="154" y="260"/>
      <point x="216" y="245"/>
      <point x="265" y="245" type="curve" smooth="yes"/>
      <point x="314" y="245"/>
      <point x="376" y="260"/>
      <point x="418" y="306" type="curve"/>
      <point x="418" y="480" type="line"/>
      <point x="434" y="480" type="line"/>
      <point x="434" y="299" type="line"/>
      <point x="399" y="261"/>
      <point x="354" y="243"/>
      <point x="319" y="237" type="curve"/>
      <point x="354" y="231"/>
      <point x="399" y="213"/>
      <point x="438" y="175" type="curve"/>
    </contour>
  </outline>
</glyph>
<glyph name="y" format="1">
  <advance width="562"/>
  <unicode hex="0079"/>
  <outline>
    <contour>
      <point x="467" y="-127" type="line"/>
      <point x="418" y="-168"/>
      <point x="342" y="-185"/>
      <point x="281" y="-185" type="curve" smooth="yes"/>
      <point x="220" y="-185"/>
      <point x="144" y="-168"/>
      <point x="95" y="-127" type="curve"/>
      <point x="95" y="-80" type="line"/>
      <point x="111" y="-80" type="line"/>
      <point x="111" y="-119" type="line"/>
      <point x="158" y="-159"/>
      <point x="234" y="-170"/>
      <point x="281" y="-170" type="curve" smooth="yes"/>
      <point x="328" y="-170"/>
      <point x="404" y="-159"/>
      <point x="451" y="-119" type="curve"/>
      <point x="451" y="36" type="line"/>
      <point x="407" y="9"/>
      <point x="345" y="-10"/>
      <point x="281" y="-10" type="curve" smooth="yes"/>
      <point x="220" y="-10"/>
      <point x="144" y="7"/>
      <point x="95" y="48" type="curve"/>
      <point x="95" y="480" type="line"/>
      <point x="111" y="480" type="line"/>
      <point x="111" y="56" type="line"/>
      <point x="158" y="16"/>
      <point x="234" y="5"/>
      <point x="281" y="5" type="curve" smooth="yes"/>
      <point x="343" y="5"/>
      <point x="401" y="21"/>
      <point x="451" y="53" type="curve"/>
      <point x="451" y="480" type="line"/>
      <point x="467" y="480" type="line"/>
    </contour>
  </outline>
</glyph>
<glyph name="z" format="1">
  <advance width="468"/>
  <unicode hex="007A"/>
  <outline>
    <contour>
      <point x="412" y="0" type="line"/>
      <point x="58" y="0" type="line"/>
      <point x="58" y="12" type="line"/>
      <point x="387" y="465" type="line"/>
      <point x="82" y="465" type="line"/>
      <point x="82" y="480" type="line"/>
      <point x="409" y="480" type="line"/>
      <point x="409" y="468" type="line"/>
      <point x="80" y="15" type="line"/>
      <point x="412" y="15" type="line"/>
    </contour>
  </outline>
</glyph>
<glyph name="braceleft" format="1">
  <advance width="415"/>
  <unicode hex="007B"/>
  <outline>
    <contour>
      <point x="334" y="-10" type="line"/>
      <point x="271" y="-3"/>
      <point x="213" y="27"/>
      <point x="177" y="67" type="curve"/>
      <point x="177" y="312" type="line"/>
      <point x="149" y="348"/>
      <point x="105" y="366"/>
      <point x="60" y="366" type="curve"/>
      <point x="60" y="380" type="line"/>
      <point x="105" y="380"/>
      <point x="149" y="398"/>
      <point x="177" y="434" type="curve"/>
      <point x="177" y="653" type="line"/>
      <point x="213" y="693"/>
      <point x="271" y="723"/>
      <point x="334" y="730" type="curve"/>
      <point x="334" y="714" type="line"/>
      <point x="275" y="707"/>
      <point x="222" y="680"/>
      <point x="193" y="646" type="curve"/>
      <point x="193" y="430" type="line"/>
      <point x="168" y="398"/>
      <point x="140" y="382"/>
      <point x="101" y="373" type="curve"/>
      <point x="140" y="364"/>
      <point x="168" y="348"/>
      <point x="193" y="316" type="curve"/>
      <point x="193" y="74" type="line"/>
      <point x="222" y="40"/>
      <point x="275" y="13"/>
      <point x="334" y="6" type="curve"/>
    </contour>
  </outline>
</glyph>
<glyph name="bar" format="1">
  <advance width="210"/>
  <unicode hex="007C"/>
  <outline>
    <contour>
      <point x="113" y="-175" type="line"/>
      <point x="97" y="-175" type="line"/>
      <point x="97" y="780" type="line"/>
      <point x="113" y="780" type="line"/>
    </contour>
  </outline>
</glyph>
<glyph name="braceright" format="1">
  <advance width="415"/>
  <unicode hex="007D"/>
  <outline>
    <contour>
      <point x="355" y="366" type="line"/>
      <point x="310" y="366"/>
      <point x="266" y="348"/>
      <point x="238" y="312" type="curve"/>
      <point x="238" y="67" type="line"/>
      <point x="202" y="27"/>
      <point x="144" y="-3"/>
      <point x="81" y="-10" type="curve"/>
      <point x="81" y="6" type="line"/>
      <point x="140" y="13"/>
      <point x="193" y="40"/>
      <point x="222" y="74" type="curve"/>
      <point x="222" y="316" type="line"/>
      <point x="247" y="348"/>
      <point x="275" y="364"/>
      <point x="314" y="373" type="curve"/>
      <point x="275" y="382"/>
      <point x="247" y="398"/>
      <point x="222" y="430" type="curve"/>
      <point x="222" y="646" type="line"/>
      <point x="193" y="680"/>
      <point x="140" y="707"/>
      <point x="81" y="714" type="curve"/>
      <point x="81" y="730" type="line"/>
      <point x="144" y="723"/>
      <point x="202" y="693"/>
      <point x="238" y="653" type="curve"/>
      <point x="238" y="434" type="line"/>
      <point x="266" y="398"/>
      <point x="310" y="380"/>
      <point x="355" y="380" type="curve"/>
    </contour>
  </outline>
</glyph>
<glyph name="asciitilde" format="1">
  <advance width="500"/>
  <unicode hex="007E"/>
  <outline>
    <contour>
      <point x="414" y="460" type="line"/>
      <point x="324" y="279" type="line"/>
      <point x="325" y="279"/>
      <point x="308" y="279"/>
      <point x="308" y="279" type="curve"/>
      <point x="185" y="445" type="line"/>
      <point x="103" y="279" type="line"/>
      <point x="86" y="279" type="line"/>
      <point x="176" y="460" type="line"/>
      <point x="175" y="460"/>
      <point x="192" y="460"/>
      <point x="192" y="460" type="curve"/>
      <point x="315" y="295" type="line"/>
      <point x="397" y="460" type="line"/>
    </contour>
  </outline>
</glyph>
<glyph name="exclamdown" format="1">
  <advance width="250"/>
  <unicode hex="00A1"/>
  <outline>
    <contour>
      <point x="133" y="615" type="line"/>
      <point x="117" y="615" type="line"/>
      <point x="117" y="720" type="line"/>
      <point x="133" y="720" type="line"/>
    </contour>
    <contour>
      <point x="133" y="0" type="line"/>
      <point x="117" y="0" type="line"/>
      <point x="117" y="505" type="line"/>
      <point x="133" y="505" type="line"/>
    </contour>
  </outline>
</glyph>
<glyph name="cent" format="1">
  <advance width="515"/>
  <unicode hex="00A2"/>
  <outline>
    <contour>
      <point x="439" y="168" type="line"/>
      <point x="392" y="129"/>
      <point x="330" y="112"/>
      <point x="271" y="110" type="curve"/>
      <point x="271" y="0" type="line"/>
      <point x="255" y="0" type="line"/>
      <point x="255" y="110" type="line"/>
      <point x="196" y="112"/>
      <point x="134" y="129"/>
      <point x="87" y="168" type="curve"/>
      <point x="87" y="552" type="line"/>
      <point x="134" y="591"/>
      <point x="196" y="608"/>
      <point x="255" y="610" type="curve"/>
      <point x="255" y="720" type="line"/>
      <point x="271" y="720" type="line"/>
      <point x="271" y="610" type="line"/>
      <point x="330" y="608"/>
      <point x="392" y="591"/>
      <point x="439" y="552" type="curve"/>
      <point x="439" y="472" type="line"/>
      <point x="423" y="472" type="line"/>
      <point x="423" y="544" type="line"/>
      <point x="376" y="584"/>
      <point x="310" y="595"/>
      <point x="263" y="595" type="curve" smooth="yes"/>
      <point x="216" y="595"/>
      <point x="150" y="584"/>
      <point x="103" y="544" type="curve"/>
      <point x="103" y="176" type="line"/>
      <point x="150" y="136"/>
      <point x="216" y="125"/>
      <point x="263" y="125" type="curve" smooth="yes"/>
      <point x="310" y="125"/>
      <point x="376" y="136"/>
      <point x="423" y="176" type="curve"/>
      <point x="423" y="248" type="line"/>
      <point x="439" y="248" type="line"/>
    </contour>
  </outline>
</glyph>
<glyph name="sterling" format="1">
  <advance width="700"/>
  <unicode hex="00A3"/>
  <outline>
    <contour>
      <point x="622" y="0" type="line"/>
      <point x="73" y="0" type="line"/>
      <point x="73" y="15" type="line"/>
      <point x="147" y="15" type="line"/>
      <point x="147" y="364" type="line"/>
      <point x="73" y="364" type="line"/>
      <point x="73" y="379" type="line"/>
      <point x="147" y="379" type="line"/>
      <point x="147" y="652" type="line"/>
      <point x="213" y="709"/>
      <point x="306" y="730"/>
      <point x="383" y="730" type="curve" smooth="yes"/>
      <point x="460" y="730"/>
      <point x="554" y="709"/>
      <point x="620" y="652" type="curve"/>
      <point x="620" y="542" type="line"/>
      <point x="604" y="542" type="line"/>
      <point x="604" y="643" type="line"/>
      <point x="544" y="693"/>
      <point x="458" y="715"/>
      <point x="383" y="715" type="curve" smooth="yes"/>
      <point x="308" y="715"/>
      <point x="223" y="693"/>
      <point x="163" y="643" type="curve"/>
      <point x="163" y="379" type="line"/>
      <point x="444" y="379" type="line"/>
      <point x="444" y="364" type="line"/>
      <point x="163" y="364" type="line"/>
      <point x="163" y="15" type="line"/>
      <point x="622" y="15" type="line"/>
    </contour>
  </outline>
</glyph>
<glyph name="yen" format="1">
  <advance width="730"/>
  <unicode hex="00A5"/>
  <outline>
    <contour>
      <point x="613" y="372" type="line"/>
      <point x="550" y="308"/>
      <point x="460" y="277"/>
      <point x="373" y="275" type="curve"/>
      <point x="373" y="146" type="line"/>
      <point x="533" y="146" type="line"/>
      <point x="533" y="131" type="line"/>
      <point x="373" y="131" type="line"/>
      <point x="373" y="0" type="line"/>
      <point x="357" y="0" type="line"/>
      <point x="357" y="131" type="line"/>
      <point x="197" y="131" type="line"/>
      <point x="197" y="146" type="line"/>
      <point x="357" y="146" type="line"/>
      <point x="357" y="275" type="line"/>
      <point x="270" y="277"/>
      <point x="180" y="308"/>
      <point x="117" y="372" type="curve"/>
      <point x="117" y="720" type="line"/>
      <point x="133" y="720" type="line"/>
      <point x="133" y="378" type="line"/>
      <point x="202" y="311"/>
      <point x="288" y="290"/>
      <point x="365" y="290" type="curve" smooth="yes"/>
      <point x="442" y="290"/>
      <point x="528" y="311"/>
      <point x="597" y="378" type="curve"/>
      <point x="597" y="720" type="line"/>
      <point x="613" y="720" type="line"/>
    </contour>
  </outline>
</glyph>
<glyph name="section" format="1">
  <advance width="716"/>
  <unicode hex="00A7"/>
  <outline>
    <contour>
      <point x="606" y="141" type="line"/>
      <point x="577" y="123"/>
      <point x="547" y="109"/>
      <point x="514" y="99" type="curve"/>
      <point x="586" y="37" type="line"/>
      <point x="586" y="-123" type="line"/>
      <point x="520" y="-169"/>
      <point x="435" y="-185"/>
      <point x="358" y="-185" type="curve" smooth="yes"/>
      <point x="281" y="-185"/>
      <point x="196" y="-169"/>
      <point x="130" y="-123" type="curve"/>
      <point x="130" y="3" type="line"/>
      <point x="146" y="3" type="line"/>
      <point x="146" y="-113" type="line"/>
      <point x="206" y="-153"/>
      <point x="283" y="-170"/>
      <point x="358" y="-170" type="curve" smooth="yes"/>
      <point x="433" y="-170"/>
      <point x="510" y="-153"/>
      <point x="570" y="-113" type="curve"/>
      <point x="570" y="32" type="line"/>
      <point x="497" y="93" type="line"/>
      <point x="454" y="81"/>
      <point x="407" y="75"/>
      <point x="358" y="75" type="curve" smooth="yes"/>
      <point x="264" y="75"/>
      <point x="182" y="97"/>
      <point x="110" y="141" type="curve"/>
      <point x="110" y="403" type="line"/>
      <point x="139" y="421"/>
      <point x="170" y="436"/>
      <point x="202" y="446" type="curve"/>
      <point x="130" y="508" type="line"/>
      <point x="130" y="668" type="line"/>
      <point x="196" y="714"/>
      <point x="281" y="730"/>
      <point x="358" y="730" type="curve" smooth="yes"/>
      <point x="435" y="730"/>
      <point x="520" y="714"/>
      <point x="586" y="668" type="curve"/>
      <point x="586" y="542" type="line"/>
      <point x="570" y="542" type="line"/>
      <point x="570" y="658" type="line"/>
      <point x="510" y="698"/>
      <point x="433" y="715"/>
      <point x="358" y="715" type="curve" smooth="yes"/>
      <point x="283" y="715"/>
      <point x="206" y="698"/>
      <point x="146" y="658" type="curve"/>
      <point x="146" y="513" type="line"/>
      <point x="219" y="451" type="line"/>
      <point x="262" y="464"/>
      <point x="309" y="470"/>
      <point x="358" y="470" type="curve" smooth="yes"/>
      <point x="452" y="470"/>
      <point x="534" y="448"/>
      <point x="606" y="403" type="curve"/>
    </contour>
    <contour>
      <point x="590" y="152" type="curve"/>
      <point x="590" y="393" type="line"/>
      <point x="521" y="436"/>
      <point x="449" y="455"/>
      <point x="358" y="455" type="curve" smooth="yes"/>
      <point x="267" y="455"/>
      <point x="195" y="436"/>
      <point x="126" y="393" type="curve"/>
      <point x="126" y="152" type="line"/>
      <point x="195" y="109"/>
      <point x="267" y="90"/>
      <point x="358" y="90" type="curve" smooth="yes"/>
      <point x="449" y="90"/>
      <point x="521" y="109"/>
    </contour>
  </outline>
</glyph>
<glyph name="dieresis" format="1">
  <advance width="500"/>
  <unicode hex="00A8"/>
  <outline>
    <contour>
      <point x="335" y="555" type="line"/>
      <point x="319" y="555" type="line"/>
      <point x="319" y="665" type="line"/>
      <point x="335" y="665" type="line"/>
    </contour>
    <contour>
      <point x="181" y="555" type="line"/>
      <point x="165" y="555" type="line"/>
      <point x="165" y="665" type="line"/>
      <point x="181" y="665" type="line"/>
    </contour>
  </outline>
</glyph>
<glyph name="copyright" format="1">
  <advance width="820"/>
  <unicode hex="00A9"/>
  <outline>
    <contour>
      <point x="708" y="85" type="line"/>
      <point x="635" y="20"/>
      <point x="518" y="-10"/>
      <point x="410" y="-10" type="curve" smooth="yes"/>
      <point x="302" y="-10"/>
      <point x="185" y="20"/>
      <point x="112" y="85" type="curve"/>
      <point x="112" y="635" type="line"/>
      <point x="185" y="700"/>
      <point x="302" y="730"/>
      <point x="410" y="730" type="curve" smooth="yes"/>
      <point x="518" y="730"/>
      <point x="635" y="700"/>
      <point x="708" y="635" type="curve"/>
    </contour>
    <contour>
      <point x="692" y="91" type="curve"/>
      <point x="692" y="629" type="line"/>
      <point x="621" y="689"/>
      <point x="505" y="715"/>
      <point x="410" y="715" type="curve" smooth="yes"/>
      <point x="315" y="715"/>
      <point x="199" y="689"/>
      <point x="128" y="629" type="curve"/>
      <point x="128" y="91" type="line"/>
      <point x="199" y="31"/>
      <point x="315" y="5"/>
      <point x="410" y="5" type="curve" smooth="yes"/>
      <point x="505" y="5"/>
      <point x="621" y="31"/>
    </contour>
    <contour>
      <point x="541" y="197" type="line"/>
      <point x="507" y="172"/>
      <point x="461" y="161"/>
      <point x="410" y="161" type="curve" smooth="yes"/>
      <point x="359" y="161"/>
      <point x="313" y="172"/>
      <point x="279" y="197" type="curve"/>
      <point x="279" y="526" type="line"/>
      <point x="313" y="551"/>
      <point x="359" y="562"/>
      <point x="410" y="562" type="curve" smooth="yes"/>
      <point x="461" y="562"/>
      <point x="507" y="551"/>
      <point x="541" y="526" type="curve"/>
      <point x="541" y="432" type="line"/>
      <point x="525" y="432" type="line"/>
      <point x="525" y="517" type="line"/>
      <point x="497" y="537"/>
      <point x="457" y="547"/>
      <point x="410" y="547" type="curve" smooth="yes"/>
      <point x="363" y="547"/>
      <point x="323" y="537"/>
      <point x="295" y="517" type="curve"/>
      <point x="295" y="206" type="line"/>
      <point x="323" y="186"/>
      <point x="363" y="176"/>
      <point x="410" y="176" type="curve" smooth="yes"/>
      <point x="457" y="176"/>
      <point x="497" y="186"/>
      <point x="525" y="206" type="curve"/>
      <point x="525" y="291" type="line"/>
      <point x="541" y="291" type="line"/>
    </contour>
  </outline>
</glyph>
<glyph name="ordfeminine" format="1">
  <advance width="503"/>
  <unicode hex="00AA"/>
  <outline>
    <contour>
      <point x="397" y="360" type="line"/>
      <point x="355" y="326"/>
      <point x="301" y="311"/>
      <point x="250" y="311" type="curve" smooth="yes"/>
      <point x="199" y="311"/>
      <point x="145" y="326"/>
      <point x="103" y="360" type="curve"/>
      <point x="103" y="504" type="line"/>
      <point x="145" y="531"/>
      <point x="199" y="543"/>
      <point x="250" y="543" type="curve" smooth="yes"/>
      <point x="303" y="543"/>
      <point x="345" y="531"/>
      <point x="381" y="513" type="curve"/>
      <point x="381" y="668" type="line"/>
      <point x="344" y="701"/>
      <point x="289" y="711"/>
      <point x="250" y="711" type="curve" smooth="yes"/>
      <point x="211" y="711"/>
      <point x="156" y="702"/>
      <point x="119" y="669" type="curve"/>
      <point x="119" y="610" type="line"/>
      <point x="103" y="610" type="line"/>
      <point x="103" y="677" type="line"/>
      <point x="145" y="711"/>
      <point x="199" y="725"/>
      <point x="250" y="725" type="curve" smooth="yes"/>
      <point x="301" y="725"/>
      <point x="355" y="711"/>
      <point x="397" y="677" type="curve"/>
    </contour>
    <contour>
      <point x="381" y="368" type="curve"/>
      <point x="381" y="497" type="line"/>
      <point x="340" y="518"/>
      <point x="301" y="529"/>
      <point x="250" y="529" type="curve" smooth="yes"/>
      <point x="211" y="529"/>
      <point x="156" y="522"/>
      <point x="119" y="495" type="curve"/>
      <point x="119" y="368" type="line"/>
      <point x="156" y="335"/>
      <point x="211" y="325"/>
      <point x="250" y="325" type="curve" smooth="yes"/>
      <point x="289" y="325"/>
      <point x="344" y="335"/>
    </contour>
  </outline>
</glyph>
<glyph name="guillemotleft" format="1">
  <advance width="590"/>
  <unicode hex="00AB"/>
  <outline>
    <contour>
      <point x="525" y="-10" type="line"/>
      <point x="298" y="232" type="line"/>
      <point x="298" y="248" type="line"/>
      <point x="525" y="490" type="line"/>
      <point x="525" y="469" type="line"/>
      <point x="312" y="240" type="line"/>
      <point x="525" y="11" type="line"/>
    </contour>
    <contour>
      <point x="275" y="-10" type="line"/>
      <point x="48" y="232" type="line"/>
      <point x="48" y="248" type="line"/>
      <point x="275" y="490" type="line"/>
      <point x="275" y="469" type="line"/>
      <point x="62" y="240" type="line"/>
      <point x="275" y="11" type="line"/>
    </contour>
  </outline>
</glyph>
<glyph name="macron" format="1">
  <advance width="500"/>
  <unicode hex="00AF"/>
  <unicode hex="02C9"/>
  <outline>
    <contour>
      <point x="390" y="555" type="line"/>
      <point x="110" y="555" type="line"/>
      <point x="110" y="570" type="line"/>
      <point x="390" y="570" type="line"/>
    </contour>
  </outline>
</glyph>
<glyph name="degree" format="1">
  <advance width="512"/>
  <unicode hex="00B0"/>
  <outline>
    <contour>
      <point x="417" y="408" type="line"/>
      <point x="368" y="367"/>
      <point x="317" y="350"/>
      <point x="256" y="350" type="curve" smooth="yes"/>
      <point x="195" y="350"/>
      <point x="144" y="367"/>
      <point x="95" y="408" type="curve"/>
      <point x="95" y="672" type="line"/>
      <point x="144" y="713"/>
      <point x="195" y="730"/>
      <point x="256" y="730" type="curve" smooth="yes"/>
      <point x="317" y="730"/>
      <point x="368" y="713"/>
      <point x="417" y="672" type="curve"/>
    </contour>
    <contour>
      <point x="401" y="416" type="curve"/>
      <point x="401" y="664" type="line"/>
      <point x="354" y="704"/>
      <point x="303" y="715"/>
      <point x="256" y="715" type="curve" smooth="yes"/>
      <point x="209" y="715"/>
      <point x="158" y="704"/>
      <point x="111" y="664" type="curve"/>
      <point x="111" y="416" type="line"/>
      <point x="158" y="376"/>
      <point x="209" y="365"/>
      <point x="256" y="365" type="curve" smooth="yes"/>
      <point x="303" y="365"/>
      <point x="354" y="376"/>
    </contour>
  </outline>
</glyph>
<glyph name="acute" format="1">
  <advance width="500"/>
  <unicode hex="00B4"/>
  <outline>
    <contour>
      <point x="307" y="690" type="line"/>
      <point x="213" y="555" type="line"/>
      <point x="193" y="555" type="line"/>
      <point x="287" y="690" type="line"/>
    </contour>
  </outline>
</glyph>
<glyph name="paragraph" format="1">
  <advance width="755"/>
  <unicode hex="00B6"/>
  <outline>
    <contour>
      <point x="628" y="0" type="line"/>
      <point x="612" y="0" type="line"/>
      <point x="612" y="705" type="line"/>
      <point x="478" y="705" type="line"/>
      <point x="478" y="0" type="line"/>
      <point x="462" y="0" type="line"/>
      <point x="462" y="300" type="line"/>
      <point x="315" y="300" type="line" smooth="yes"/>
      <point x="223" y="300"/>
      <point x="144" y="322"/>
      <point x="79" y="398" type="curve"/>
      <point x="79" y="622" type="line"/>
      <point x="144" y="698"/>
      <point x="223" y="720"/>
      <point x="315" y="720" type="curve" smooth="yes"/>
      <point x="628" y="720" type="line"/>
    </contour>
    <contour>
      <point x="462" y="315" type="line"/>
      <point x="462" y="705" type="line"/>
      <point x="315" y="705" type="line" smooth="yes"/>
      <point x="234" y="705"/>
      <point x="157" y="686"/>
      <point x="95" y="614" type="curve"/>
      <point x="95" y="406" type="line"/>
      <point x="157" y="334"/>
      <point x="234" y="315"/>
      <point x="315" y="315" type="curve" smooth="yes"/>
    </contour>
  </outline>
</glyph>
<glyph name="periodcentered" format="1">
  <advance width="210"/>
  <unicode hex="00B7"/>
  <unicode hex="2219"/>
  <outline>
    <contour>
      <point x="113" y="244" type="line"/>
      <point x="97" y="244" type="line"/>
      <point x="97" y="349" type="line"/>
      <point x="113" y="349" type="line"/>
    </contour>
  </outline>
</glyph>
<glyph name="cedilla" format="1">
  <advance width="500"/>
  <unicode hex="00B8"/>
  <outline>
    <contour>
      <point x="258" y="-82" type="line"/>
      <point x="231" y="-112"/>
      <point x="198" y="-120"/>
      <point x="163" y="-120" type="curve" smooth="yes"/>
      <point x="157" y="-120" type="line"/>
      <point x="157" y="-105" type="line"/>
      <point x="163" y="-105" type="line" smooth="yes"/>
      <point x="194" y="-105"/>
      <point x="219" y="-99"/>
      <point x="242" y="-76" type="curve"/>
      <point x="242" y="0" type="line"/>
      <point x="258" y="0" type="line"/>
    </contour>
  </outline>
</glyph>
<glyph name="ordmasculine" format="1">
  <advance width="526"/>
  <unicode hex="00BA"/>
  <outline>
    <contour>
      <point x="418" y="360" type="line"/>
      <point x="376" y="326"/>
      <point x="314" y="311"/>
      <point x="263" y="311" type="curve" smooth="yes"/>
      <point x="212" y="311"/>
      <point x="150" y="326"/>
      <point x="108" y="360" type="curve"/>
      <point x="108" y="677" type="line"/>
      <point x="150" y="711"/>
      <point x="212" y="725"/>
      <point x="263" y="725" type="curve" smooth="yes"/>
      <point x="314" y="725"/>
      <point x="376" y="711"/>
      <point x="418" y="677" type="curve"/>
    </contour>
    <contour>
      <point x="403" y="368" type="curve"/>
      <point x="403" y="668" type="line"/>
      <point x="365" y="701"/>
      <point x="302" y="711"/>
      <point x="263" y="711" type="curve" smooth="yes"/>
      <point x="224" y="711"/>
      <point x="161" y="702"/>
      <point x="123" y="669" type="curve"/>
      <point x="123" y="368" type="line"/>
      <point x="161" y="335"/>
      <point x="224" y="325"/>
      <point x="263" y="325" type="curve" smooth="yes"/>
      <point x="302" y="325"/>
      <point x="365" y="335"/>
    </contour>
  </outline>
</glyph>
<glyph name="guillemotright" format="1">
  <advance width="590"/>
  <unicode hex="00BB"/>
  <outline>
    <contour>
      <point x="542" y="232" type="line"/>
      <point x="315" y="-10" type="line"/>
      <point x="315" y="11" type="line"/>
      <point x="528" y="240" type="line"/>
      <point x="315" y="469" type="line"/>
      <point x="315" y="490" type="line"/>
      <point x="542" y="248" type="line"/>
    </contour>
    <contour>
      <point x="292" y="232" type="line"/>
      <point x="65" y="-10" type="line"/>
      <point x="65" y="11" type="line"/>
      <point x="278" y="240" type="line"/>
      <point x="65" y="469" type="line"/>
      <point x="65" y="490" type="line"/>
      <point x="292" y="248" type="line"/>
    </contour>
  </outline>
</glyph>
<glyph name="questiondown" format="1">
  <advance width="600"/>
  <unicode hex="00BF"/>
  <outline>
    <contour>
      <point x="306" y="615" type="line"/>
      <point x="290" y="615" type="line"/>
      <point x="290" y="720" type="line"/>
      <point x="306" y="720" type="line"/>
    </contour>
    <contour>
      <point x="529" y="68" type="line"/>
      <point x="463" y="11"/>
      <point x="378" y="-10"/>
      <point x="301" y="-10" type="curve" smooth="yes"/>
      <point x="224" y="-10"/>
      <point x="139" y="11"/>
      <point x="73" y="68" type="curve"/>
      <point x="73" y="222" type="line"/>
      <point x="290" y="420" type="line"/>
      <point x="290" y="505" type="line"/>
      <point x="306" y="505" type="line"/>
      <point x="306" y="415" type="line"/>
      <point x="89" y="217" type="line"/>
      <point x="89" y="77" type="line"/>
      <point x="149" y="27"/>
      <point x="226" y="5"/>
      <point x="301" y="5" type="curve" smooth="yes"/>
      <point x="376" y="5"/>
      <point x="453" y="27"/>
      <point x="513" y="77" type="curve"/>
      <point x="513" y="178" type="line"/>
      <point x="529" y="178" type="line"/>
    </contour>
  </outline>
</glyph>
<glyph name="Aring" format="1">
  <advance width="760"/>
  <unicode hex="00C5"/>
  <outline>
    <contour>
      <point x="638" y="0" type="line"/>
      <point x="622" y="0" type="line"/>
      <point x="622" y="316" type="line"/>
      <point x="138" y="316" type="line"/>
      <point x="138" y="0" type="line"/>
      <point x="122" y="0" type="line"/>
      <point x="122" y="646" type="line"/>
      <point x="202" y="706"/>
      <point x="291" y="730"/>
      <point x="380" y="730" type="curve" smooth="yes"/>
      <point x="469" y="730"/>
      <point x="558" y="706"/>
      <point x="638" y="646" type="curve"/>
    </contour>
    <contour>
      <point x="622" y="331" type="line"/>
      <point x="622" y="638" type="line"/>
      <point x="545" y="694"/>
      <point x="466" y="715"/>
      <point x="380" y="715" type="curve" smooth="yes"/>
      <point x="294" y="715"/>
      <point x="215" y="694"/>
      <point x="138" y="638" type="curve"/>
      <point x="138" y="331" type="line"/>
    </contour>
    <contour>
      <point x="501" y="828" type="line"/>
      <point x="470" y="805"/>
      <point x="422" y="790"/>
      <point x="380" y="790" type="curve" smooth="yes"/>
      <point x="338" y="790"/>
      <point x="290" y="805"/>
      <point x="259" y="828" type="curve"/>
      <point x="259" y="897" type="line"/>
      <point x="290" y="920"/>
      <point x="338" y="935"/>
      <point x="380" y="935" type="curve" smooth="yes"/>
      <point x="422" y="935"/>
      <point x="470" y="920"/>
      <point x="501" y="897" type="curve"/>
    </contour>
    <contour>
      <point x="485" y="836" type="curve"/>
      <point x="485" y="889" type="line"/>
      <point x="456" y="911"/>
      <point x="412" y="920"/>
      <point x="380" y="920" type="curve" smooth="yes"/>
      <point x="348" y="920"/>
      <point x="304" y="911"/>
      <point x="275" y="889" type="curve"/>
      <point x="275" y="836" type="line"/>
      <point x="304" y="814"/>
      <point x="348" y="805"/>
      <point x="380" y="805" type="curve" smooth="yes"/>
      <point x="412" y="805"/>
      <point x="456" y="814"/>
    </contour>
  </outline>
</glyph>
<glyph name="AE" format="1">
  <advance width="1200"/>
  <unicode hex="00C6"/>
  <outline>
    <contour>
      <point x="1088" y="54" type="line"/>
      <point x="1008" y="9"/>
      <point x="929" y="-10"/>
      <point x="840" y="-10" type="curve" smooth="yes"/>
      <point x="751" y="-10"/>
      <point x="672" y="9"/>
      <point x="592" y="54" type="curve"/>
      <point x="592" y="316" type="line"/>
      <point x="138" y="316" type="line"/>
      <point x="138" y="0" type="line"/>
      <point x="122" y="0" type="line"/>
      <point x="122" y="662" type="line"/>
      <point x="186" y="710"/>
      <point x="276" y="730"/>
      <point x="365" y="730" type="curve" smooth="yes"/>
      <point x="449" y="730"/>
      <point x="534" y="712"/>
      <point x="597" y="669" type="curve"/>
      <point x="676" y="713"/>
      <point x="753" y="730"/>
      <point x="840" y="730" type="curve" smooth="yes"/>
      <point x="929" y="730"/>
      <point x="1008" y="712"/>
      <point x="1088" y="666" type="curve"/>
      <point x="1088" y="542" type="line"/>
      <point x="1072" y="542" type="line"/>
      <point x="1072" y="657" type="line"/>
      <point x="995" y="699"/>
      <point x="926" y="715"/>
      <point x="840" y="715" type="curve" smooth="yes"/>
      <point x="754" y="715"/>
      <point x="685" y="699"/>
      <point x="608" y="657" type="curve"/>
      <point x="608" y="379" type="line"/>
      <point x="927" y="379" type="line"/>
      <point x="927" y="364" type="line"/>
      <point x="608" y="364" type="line"/>
      <point x="608" y="63" type="line"/>
      <point x="685" y="21"/>
      <point x="754" y="5"/>
      <point x="840" y="5" type="curve" smooth="yes"/>
      <point x="926" y="5"/>
      <point x="995" y="21"/>
      <point x="1072" y="63" type="curve"/>
      <point x="1072" y="178" type="line"/>
      <point x="1088" y="178" type="line"/>
    </contour>
    <contour>
      <point x="592" y="331" type="line"/>
      <point x="592" y="654" type="line"/>
      <point x="530" y="699"/>
      <point x="447" y="715"/>
      <point x="365" y="715" type="curve" smooth="yes"/>
      <point x="283" y="715"/>
      <point x="200" y="699"/>
      <point x="138" y="654" type="curve"/>
      <point x="138" y="331" type="line"/>
    </contour>
  </outline>
</glyph>
<glyph name="Ccedilla" format="1">
  <advance width="750"/>
  <unicode hex="00C7"/>
  <outline>
    <contour>
      <point x="638" y="78" type="line"/>
      <point x="560" y="17"/>
      <point x="470" y="-8"/>
      <point x="383" y="-10" type="curve"/>
      <point x="383" y="-82" type="line"/>
      <point x="356" y="-112"/>
      <point x="323" y="-120"/>
      <point x="288" y="-120" type="curve" smooth="yes"/>
      <point x="282" y="-120" type="line"/>
      <point x="282" y="-105" type="line"/>
      <point x="288" y="-105" type="line" smooth="yes"/>
      <point x="319" y="-105"/>
      <point x="344" y="-99"/>
      <point x="367" y="-76" type="curve"/>
      <point x="367" y="-10" type="line"/>
      <point x="280" y="-8"/>
      <point x="190" y="17"/>
      <point x="112" y="78" type="curve"/>
      <point x="112" y="642" type="line"/>
      <point x="192" y="705"/>
      <point x="286" y="730"/>
      <point x="375" y="730" type="curve" smooth="yes"/>
      <point x="464" y="730"/>
      <point x="558" y="705"/>
      <point x="638" y="642" type="curve"/>
      <point x="638" y="542" type="line"/>
      <point x="622" y="542" type="line"/>
      <point x="622" y="634" type="line"/>
      <point x="545" y="693"/>
      <point x="461" y="715"/>
      <point x="375" y="715" type="curve" smooth="yes"/>
      <point x="289" y="715"/>
      <point x="205" y="693"/>
      <point x="128" y="634" type="curve"/>
      <point x="128" y="85" type="line"/>
      <point x="205" y="26"/>
      <point x="289" y="5"/>
      <point x="375" y="5" type="curve" smooth="yes"/>
      <point x="461" y="5"/>
      <point x="545" y="26"/>
      <point x="622" y="85" type="curve"/>
      <point x="622" y="178" type="line"/>
      <point x="638" y="178" type="line"/>
    </contour>
  </outline>
</glyph>
<glyph name="Eth" format="1">
  <advance width="778"/>
  <unicode hex="00D0"/>
  <outline>
    <contour>
      <point x="666" y="122" type="line"/>
      <point x="599" y="46"/>
      <point x="505" y="0"/>
      <point x="353" y="0" type="curve" smooth="yes"/>
      <point x="147" y="0" type="line"/>
      <point x="147" y="364" type="line"/>
      <point x="67" y="364" type="line"/>
      <point x="67" y="379" type="line"/>
      <point x="147" y="379" type="line"/>
      <point x="147" y="720" type="line"/>
      <point x="353" y="720" type="line" smooth="yes"/>
      <point x="505" y="720"/>
      <point x="599" y="674"/>
      <point x="666" y="598" type="curve"/>
    </contour>
    <contour>
      <point x="650" y="129" type="curve"/>
      <point x="650" y="591" type="line"/>
      <point x="587" y="662"/>
      <point x="498" y="705"/>
      <point x="353" y="705" type="curve" smooth="yes"/>
      <point x="163" y="705" type="line"/>
      <point x="163" y="379" type="line"/>
      <point x="283" y="379" type="line"/>
      <point x="283" y="364" type="line"/>
      <point x="163" y="364" type="line"/>
      <point x="163" y="15" type="line"/>
      <point x="353" y="15" type="line" smooth="yes"/>
      <point x="498" y="15"/>
      <point x="587" y="58"/>
    </contour>
  </outline>
</glyph>
<glyph name="Oslash" format="1">
  <advance width="780"/>
  <unicode hex="00D8"/>
  <outline>
    <contour>
      <point x="668" y="93" type="line"/>
      <point x="588" y="23"/>
      <point x="495" y="-10"/>
      <point x="390" y="-10" type="curve" smooth="yes"/>
      <point x="326" y="-10"/>
      <point x="267" y="2"/>
      <point x="212" y="27" type="curve"/>
      <point x="158" y="-70" type="line"/>
      <point x="142" y="-70" type="line"/>
      <point x="200" y="33" type="line"/>
      <point x="169" y="49"/>
      <point x="139" y="68"/>
      <point x="112" y="93" type="curve"/>
      <point x="112" y="627" type="line"/>
      <point x="192" y="697"/>
      <point x="285" y="730"/>
      <point x="390" y="730" type="curve" smooth="yes"/>
      <point x="454" y="730"/>
      <point x="513" y="718"/>
      <point x="567" y="693" type="curve"/>
      <point x="622" y="790" type="line"/>
      <point x="638" y="790" type="line"/>
      <point x="580" y="687" type="line"/>
      <point x="611" y="671"/>
      <point x="640" y="651"/>
      <point x="668" y="627" type="curve"/>
    </contour>
    <contour>
      <point x="652" y="100" type="curve"/>
      <point x="652" y="620" type="line"/>
      <point x="627" y="642"/>
      <point x="600" y="660"/>
      <point x="573" y="673" type="curve"/>
      <point x="219" y="40" type="line"/>
      <point x="271" y="16"/>
      <point x="327" y="5"/>
      <point x="390" y="5" type="curve" smooth="yes"/>
      <point x="491" y="5"/>
      <point x="575" y="34"/>
    </contour>
    <contour>
      <point x="560" y="680" type="line"/>
      <point x="509" y="704"/>
      <point x="453" y="715"/>
      <point x="390" y="715" type="curve" smooth="yes"/>
      <point x="289" y="715"/>
      <point x="205" y="686"/>
      <point x="128" y="620" type="curve"/>
      <point x="128" y="100" type="line"/>
      <point x="153" y="78"/>
      <point x="180" y="60"/>
      <point x="207" y="46" type="curve"/>
    </contour>
  </outline>
</glyph>
<glyph name="Thorn" format="1">
  <advance width="655"/>
  <unicode hex="00DE"/>
  <outline>
    <contour>
      <point x="576" y="258" type="line"/>
      <point x="511" y="182"/>
      <point x="432" y="160"/>
      <point x="340" y="160" type="curve" smooth="yes"/>
      <point x="143" y="160" type="line"/>
      <point x="143" y="0" type="line"/>
      <point x="127" y="0" type="line"/>
      <point x="127" y="720" type="line"/>
      <point x="143" y="720" type="line"/>
      <point x="143" y="580" type="line"/>
      <point x="340" y="580" type="line" smooth="yes"/>
      <point x="432" y="580"/>
      <point x="511" y="558"/>
      <point x="576" y="482" type="curve"/>
    </contour>
    <contour>
      <point x="560" y="266" type="curve"/>
      <point x="560" y="474" type="line"/>
      <point x="498" y="546"/>
      <point x="421" y="565"/>
      <point x="340" y="565" type="curve" smooth="yes"/>
      <point x="143" y="565" type="line"/>
      <point x="143" y="175" type="line"/>
      <point x="340" y="175" type="line" smooth="yes"/>
      <point x="421" y="175"/>
      <point x="498" y="194"/>
    </contour>
  </outline>
</glyph>
<glyph name="germandbls" format="1">
  <advance width="496"/>
  <unicode hex="00DF"/>
  <outline>
    <contour>
      <point x="411" y="62" type="line"/>
      <point x="368" y="10"/>
      <point x="287" y="-5"/>
      <point x="224" y="-5" type="curve"/>
      <point x="224" y="10" type="line"/>
      <point x="283" y="10"/>
      <point x="357" y="23"/>
      <point x="395" y="68" type="curve"/>
      <point x="395" y="299" type="line"/>
      <point x="366" y="339"/>
      <point x="326" y="364"/>
      <point x="258" y="364" type="curve" smooth="yes"/>
      <point x="111" y="364" type="line"/>
      <point x="111" y="0" type="line"/>
      <point x="95" y="0" type="line"/>
      <point x="95" y="684" type="line"/>
      <point x="144" y="717"/>
      <point x="190" y="730"/>
      <point x="251" y="730" type="curve" smooth="yes"/>
      <point x="312" y="730"/>
      <point x="357" y="717"/>
      <point x="406" y="684" type="curve"/>
      <point x="406" y="435" type="line"/>
      <point x="380" y="401"/>
      <point x="352" y="379"/>
      <point x="305" y="372" type="curve"/>
      <point x="352" y="363"/>
      <point x="383" y="343"/>
      <point x="411" y="304" type="curve"/>
    </contour>
    <contour>
      <point x="390" y="439" type="curve"/>
      <point x="390" y="674" type="line"/>
      <point x="348" y="706"/>
      <point x="298" y="715"/>
      <point x="251" y="715" type="curve" smooth="yes"/>
      <point x="204" y="715"/>
      <point x="153" y="706"/>
      <point x="111" y="674" type="curve"/>
      <point x="111" y="379" type="line"/>
      <point x="256" y="379" type="line" smooth="yes"/>
      <point x="332" y="379"/>
      <point x="365" y="406"/>
    </contour>
  </outline>
</glyph>
<glyph name="ae" format="1">
  <advance width="816"/>
  <unicode hex="00E6"/>
  <outline>
    <contour>
      <point x="732" y="36" type="line"/>
      <point x="683" y="3"/>
      <point x="627" y="-10"/>
      <point x="566" y="-10" type="curve" smooth="yes"/>
      <point x="508" y="-10"/>
      <point x="455" y="2"/>
      <point x="408" y="31" type="curve"/>
      <point x="361" y="2"/>
      <point x="308" y="-10"/>
      <point x="250" y="-10" type="curve" smooth="yes"/>
      <point x="189" y="-10"/>
      <point x="133" y="3"/>
      <point x="84" y="36" type="curve"/>
      <point x="84" y="222" type="line"/>
      <point x="133" y="255"/>
      <point x="189" y="269"/>
      <point x="250" y="269" type="curve" smooth="yes"/>
      <point x="314" y="269"/>
      <point x="356" y="254"/>
      <point x="400" y="231" type="curve"/>
      <point x="400" y="434" type="line"/>
      <point x="353" y="466"/>
      <point x="297" y="475"/>
      <point x="250" y="475" type="curve" smooth="yes"/>
      <point x="203" y="475"/>
      <point x="147" y="466"/>
      <point x="100" y="434" type="curve"/>
      <point x="100" y="352" type="line"/>
      <point x="84" y="352" type="line"/>
      <point x="84" y="444" type="line"/>
      <point x="133" y="477"/>
      <point x="189" y="490"/>
      <point x="250" y="490" type="curve" smooth="yes"/>
      <point x="308" y="490"/>
      <point x="361" y="478"/>
      <point x="408" y="449" type="curve"/>
      <point x="455" y="478"/>
      <point x="508" y="490"/>
      <point x="566" y="490" type="curve" smooth="yes"/>
      <point x="627" y="490"/>
      <point x="683" y="477"/>
      <point x="732" y="444" type="curve"/>
      <point x="732" y="238" type="line"/>
      <point x="416" y="238" type="line"/>
      <point x="416" y="45" type="line"/>
      <point x="463" y="13"/>
      <point x="519" y="5"/>
      <point x="566" y="5" type="curve" smooth="yes"/>
      <point x="613" y="5"/>
      <point x="669" y="13"/>
      <point x="716" y="45" type="curve"/>
      <point x="716" y="128" type="line"/>
      <point x="732" y="128" type="line"/>
    </contour>
    <contour>
      <point x="716" y="253" type="line"/>
      <point x="716" y="434" type="line"/>
      <point x="669" y="466"/>
      <point x="613" y="475"/>
      <point x="566" y="475" type="curve" smooth="yes"/>
      <point x="519" y="475"/>
      <point x="463" y="466"/>
      <point x="416" y="434" type="curve"/>
      <point x="416" y="253" type="line"/>
    </contour>
    <contour>
      <point x="400" y="45" type="curve"/>
      <point x="400" y="215" type="line"/>
      <point x="350" y="241"/>
      <point x="312" y="254"/>
      <point x="250" y="254" type="curve" smooth="yes"/>
      <point x="203" y="254"/>
      <point x="147" y="245"/>
      <point x="100" y="212" type="curve"/>
      <point x="100" y="45" type="line"/>
      <point x="147" y="13"/>
      <point x="203" y="5"/>
      <point x="250" y="5" type="curve" smooth="yes"/>
      <point x="297" y="5"/>
      <point x="353" y="13"/>
    </contour>
  </outline>
</glyph>
<glyph name="ccedilla" format="1">
  <advance width="515"/>
  <unicode hex="00E7"/>
  <outline>
    <contour>
      <point x="439" y="48" type="line"/>
      <point x="392" y="9"/>
      <point x="329" y="-9"/>
      <point x="270" y="-10" type="curve"/>
      <point x="270" y="-82" type="line"/>
      <point x="243" y="-112"/>
      <point x="210" y="-120"/>
      <point x="175" y="-120" type="curve" smooth="yes"/>
      <point x="169" y="-120" type="line"/>
      <point x="169" y="-105" type="line"/>
      <point x="175" y="-105" type="line" smooth="yes"/>
      <point x="206" y="-105"/>
      <point x="231" y="-99"/>
      <point x="254" y="-76" type="curve"/>
      <point x="254" y="-10" type="line"/>
      <point x="195" y="-8"/>
      <point x="134" y="9"/>
      <point x="87" y="48" type="curve"/>
      <point x="87" y="432" type="line"/>
      <point x="136" y="473"/>
      <point x="202" y="490"/>
      <point x="263" y="490" type="curve" smooth="yes"/>
      <point x="324" y="490"/>
      <point x="390" y="473"/>
      <point x="439" y="432" type="curve"/>
      <point x="439" y="352" type="line"/>
      <point x="423" y="352" type="line"/>
      <point x="423" y="424" type="line"/>
      <point x="376" y="464"/>
      <point x="310" y="475"/>
      <point x="263" y="475" type="curve" smooth="yes"/>
      <point x="216" y="475"/>
      <point x="150" y="464"/>
      <point x="103" y="424" type="curve"/>
      <point x="103" y="56" type="line"/>
      <point x="150" y="16"/>
      <point x="216" y="5"/>
      <point x="263" y="5" type="curve" smooth="yes"/>
      <point x="310" y="5"/>
      <point x="376" y="16"/>
      <point x="423" y="56" type="curve"/>
      <point x="423" y="128" type="line"/>
      <point x="439" y="128" type="line"/>
    </contour>
  </outline>
</glyph>
<glyph name="oslash" format="1">
  <advance width="546"/>
  <unicode hex="00F8"/>
  <outline>
    <contour>
      <point x="459" y="48" type="line"/>
      <point x="410" y="7"/>
      <point x="334" y="-10"/>
      <point x="273" y="-10" type="curve" smooth="yes"/>
      <point x="240" y="-10"/>
      <point x="204" y="-5"/>
      <point x="169" y="6" type="curve"/>
      <point x="133" y="-70" type="line"/>
      <point x="117" y="-70" type="line"/>
      <point x="156" y="10" type="line"/>
      <point x="131" y="19"/>
      <point x="107" y="32"/>
      <point x="87" y="48" type="curve"/>
      <point x="87" y="432" type="line"/>
      <point x="136" y="473"/>
      <point x="212" y="490"/>
      <point x="273" y="490" type="curve" smooth="yes"/>
      <point x="305" y="490"/>
      <point x="342" y="485"/>
      <point x="377" y="474" type="curve"/>
      <point x="413" y="550" type="line"/>
      <point x="429" y="550" type="line"/>
      <point x="390" y="470" type="line"/>
      <point x="416" y="461"/>
      <point x="439" y="448"/>
      <point x="459" y="432" type="curve"/>
    </contour>
    <contour>
      <point x="443" y="56" type="curve"/>
      <point x="443" y="424" type="line"/>
      <point x="426" y="438"/>
      <point x="406" y="449"/>
      <point x="384" y="456" type="curve"/>
      <point x="175" y="19" type="line"/>
      <point x="210" y="9"/>
      <point x="247" y="5"/>
      <point x="273" y="5" type="curve" smooth="yes"/>
      <point x="320" y="5"/>
      <point x="396" y="16"/>
    </contour>
    <contour>
      <point x="370" y="461" type="line"/>
      <point x="336" y="471"/>
      <point x="299" y="475"/>
      <point x="273" y="475" type="curve" smooth="yes"/>
      <point x="226" y="475"/>
      <point x="150" y="464"/>
      <point x="103" y="424" type="curve"/>
      <point x="103" y="56" type="line"/>
      <point x="120" y="42"/>
      <point x="140" y="31"/>
      <point x="162" y="23" type="curve"/>
    </contour>
  </outline>
</glyph>
<glyph name="thorn" format="1">
  <advance width="554"/>
  <unicode hex="00FE"/>
  <outline>
    <contour>
      <point x="467" y="48" type="line"/>
      <point x="418" y="7"/>
      <point x="342" y="-10"/>
      <point x="281" y="-10" type="curve" smooth="yes"/>
      <point x="217" y="-10"/>
      <point x="155" y="9"/>
      <point x="111" y="36" type="curve"/>
      <point x="111" y="-175" type="line"/>
      <point x="95" y="-175" type="line"/>
      <point x="95" y="720" type="line"/>
      <point x="111" y="720" type="line"/>
      <point x="111" y="444" type="line"/>
      <point x="155" y="471"/>
      <point x="217" y="490"/>
      <point x="281" y="490" type="curve" smooth="yes"/>
      <point x="342" y="490"/>
      <point x="418" y="473"/>
      <point x="467" y="432" type="curve"/>
    </contour>
    <contour>
      <point x="451" y="56" type="curve"/>
      <point x="451" y="424" type="line"/>
      <point x="404" y="464"/>
      <point x="328" y="475"/>
      <point x="281" y="475" type="curve" smooth="yes"/>
      <point x="219" y="475"/>
      <point x="161" y="459"/>
      <point x="111" y="427" type="curve"/>
      <point x="111" y="53" type="line"/>
      <point x="161" y="21"/>
      <point x="219" y="5"/>
      <point x="281" y="5" type="curve" smooth="yes"/>
      <point x="328" y="5"/>
      <point x="404" y="16"/>
    </contour>
  </outline>
</glyph>
<glyph name="dotlessi" format="1">
  <advance width="210"/>
  <unicode hex="0131"/>
  <outline>
    <contour>
      <point x="113" y="0" type="line"/>
      <point x="97" y="0" type="line"/>
      <point x="97" y="480" type="line"/>
      <point x="113" y="480" type="line"/>
    </contour>
  </outline>
</glyph>
<glyph name="Lslash" format="1">
  <advance width="625"/>
  <unicode hex="0141"/>
  <outline>
    <contour>
      <point x="558" y="0" type="line"/>
      <point x="137" y="0" type="line"/>
      <point x="137" y="324" type="line"/>
      <point x="70" y="291" type="line"/>
      <point x="70" y="309" type="line"/>
      <point x="137" y="342" type="line"/>
      <point x="137" y="720" type="line"/>
      <point x="153" y="720" type="line"/>
      <point x="153" y="350" type="line"/>
      <point x="340" y="444" type="line"/>
      <point x="340" y="426" type="line"/>
      <point x="153" y="332" type="line"/>
      <point x="153" y="15" type="line"/>
      <point x="558" y="15" type="line"/>
    </contour>
  </outline>
</glyph>
<glyph name="lslash" format="1">
  <advance width="230"/>
  <unicode hex="0142"/>
  <outline>
    <contour>
      <point x="188" y="361" type="line"/>
      <point x="123" y="328" type="line"/>
      <point x="123" y="0" type="line"/>
      <point x="107" y="0" type="line"/>
      <point x="107" y="320" type="line"/>
      <point x="42" y="287" type="line"/>
      <point x="42" y="305" type="line"/>
      <point x="107" y="338" type="line"/>
      <point x="107" y="720" type="line"/>
      <point x="123" y="720" type="line"/>
      <point x="123" y="346" type="line"/>
      <point x="188" y="379" type="line"/>
    </contour>
  </outline>
</glyph>
<glyph name="OE" format="1">
  <advance width="1230"/>
  <unicode hex="0152"/>
  <outline>
    <contour>
      <point x="1118" y="54" type="line"/>
      <point x="1038" y="9"/>
      <point x="959" y="-10"/>
      <point x="870" y="-10" type="curve" smooth="yes"/>
      <point x="783" y="-10"/>
      <point x="706" y="8"/>
      <point x="628" y="51" type="curve"/>
      <point x="550" y="9"/>
      <point x="465" y="-10"/>
      <point x="375" y="-10" type="curve" smooth="yes"/>
      <point x="281" y="-10"/>
      <point x="192" y="11"/>
      <point x="112" y="56" type="curve"/>
      <point x="112" y="664" type="line"/>
      <point x="192" y="709"/>
      <point x="281" y="730"/>
      <point x="375" y="730" type="curve" smooth="yes"/>
      <point x="465" y="730"/>
      <point x="550" y="711"/>
      <point x="627" y="669" type="curve"/>
      <point x="706" y="713"/>
      <point x="783" y="730"/>
      <point x="870" y="730" type="curve" smooth="yes"/>
      <point x="959" y="730"/>
      <point x="1038" y="712"/>
      <point x="1118" y="666" type="curve"/>
      <point x="1118" y="542" type="line"/>
      <point x="1102" y="542" type="line"/>
      <point x="1102" y="657" type="line"/>
      <point x="1025" y="699"/>
      <point x="956" y="715"/>
      <point x="870" y="715" type="curve" smooth="yes"/>
      <point x="784" y="715"/>
      <point x="715" y="699"/>
      <point x="638" y="657" type="curve"/>
      <point x="638" y="379" type="line"/>
      <point x="957" y="379" type="line"/>
      <point x="957" y="364" type="line"/>
      <point x="638" y="364" type="line"/>
      <point x="638" y="63" type="line"/>
      <point x="715" y="21"/>
      <point x="784" y="5"/>
      <point x="870" y="5" type="curve" smooth="yes"/>
      <point x="956" y="5"/>
      <point x="1025" y="21"/>
      <point x="1102" y="63" type="curve"/>
      <point x="1102" y="178" type="line"/>
      <point x="1118" y="178" type="line"/>
    </contour>
    <contour>
      <point x="622" y="66" type="curve"/>
      <point x="622" y="654" type="line"/>
      <point x="545" y="696"/>
      <point x="466" y="715"/>
      <point x="375" y="715" type="curve" smooth="yes"/>
      <point x="284" y="715"/>
      <point x="205" y="696"/>
      <point x="128" y="654" type="curve"/>
      <point x="128" y="66" type="line"/>
      <point x="205" y="23"/>
      <point x="284" y="5"/>
      <point x="375" y="5" type="curve" smooth="yes"/>
      <point x="466" y="5"/>
      <point x="545" y="23"/>
    </contour>
  </outline>
</glyph>
<glyph name="oe" format="1">
  <advance width="839"/>
  <unicode hex="0153"/>
  <outline>
    <contour>
      <point x="755" y="36" type="line"/>
      <point x="706" y="3"/>
      <point x="650" y="-10"/>
      <point x="589" y="-10" type="curve" smooth="yes"/>
      <point x="531" y="-10"/>
      <point x="478" y="2"/>
      <point x="431" y="31" type="curve"/>
      <point x="383" y="2"/>
      <point x="321" y="-10"/>
      <point x="263" y="-10" type="curve" smooth="yes"/>
      <point x="202" y="-10"/>
      <point x="136" y="3"/>
      <point x="87" y="36" type="curve"/>
      <point x="87" y="444" type="line"/>
      <point x="136" y="477"/>
      <point x="202" y="490"/>
      <point x="263" y="490" type="curve" smooth="yes"/>
      <point x="321" y="490"/>
      <point x="383" y="478"/>
      <point x="431" y="449" type="curve"/>
      <point x="478" y="478"/>
      <point x="531" y="490"/>
      <point x="589" y="490" type="curve" smooth="yes"/>
      <point x="650" y="490"/>
      <point x="706" y="477"/>
      <point x="755" y="444" type="curve"/>
      <point x="755" y="238" type="line"/>
      <point x="439" y="238" type="line"/>
      <point x="439" y="45" type="line"/>
      <point x="486" y="13"/>
      <point x="542" y="5"/>
      <point x="589" y="5" type="curve" smooth="yes"/>
      <point x="636" y="5"/>
      <point x="692" y="13"/>
      <point x="739" y="45" type="curve"/>
      <point x="739" y="128" type="line"/>
      <point x="755" y="128" type="line"/>
    </contour>
    <contour>
      <point x="739" y="253" type="line"/>
      <point x="739" y="434" type="line"/>
      <point x="692" y="466"/>
      <point x="636" y="475"/>
      <point x="589" y="475" type="curve" smooth="yes"/>
      <point x="542" y="475"/>
      <point x="486" y="466"/>
      <point x="439" y="434" type="curve"/>
      <point x="439" y="253" type="line"/>
    </contour>
    <contour>
      <point x="423" y="45" type="curve"/>
      <point x="423" y="434" type="line"/>
      <point x="376" y="466"/>
      <point x="310" y="475"/>
      <point x="263" y="475" type="curve" smooth="yes"/>
      <point x="216" y="475"/>
      <point x="150" y="466"/>
      <point x="103" y="434" type="curve"/>
      <point x="103" y="45" type="line"/>
      <point x="150" y="13"/>
      <point x="216" y="5"/>
      <point x="263" y="5" type="curve" smooth="yes"/>
      <point x="310" y="5"/>
      <point x="376" y="13"/>
    </contour>
  </outline>
</glyph>
<glyph name="florin" format="1">
  <advance width="330"/>
  <unicode hex="0192"/>
  <outline>
    <contour>
      <point x="279" y="710" type="line"/>
      <point x="263" y="710" type="line" smooth="yes"/>
      <point x="216" y="710"/>
      <point x="179" y="691"/>
      <point x="154" y="660" type="curve"/>
      <point x="154" y="480" type="line"/>
      <point x="269" y="480" type="line"/>
      <point x="269" y="465" type="line"/>
      <point x="154" y="465" type="line"/>
      <point x="154" y="-121" type="line"/>
      <point x="126" y="-158"/>
      <point x="79" y="-180"/>
      <point x="29" y="-180" type="curve" smooth="yes"/>
      <point x="13" y="-180" type="line"/>
      <point x="13" y="-165" type="line"/>
      <point x="29" y="-165" type="line" smooth="yes"/>
      <point x="76" y="-165"/>
      <point x="113" y="-146"/>
      <point x="138" y="-115" type="curve"/>
      <point x="138" y="465" type="line"/>
      <point x="64" y="465" type="line"/>
      <point x="64" y="480" type="line"/>
      <point x="138" y="480" type="line"/>
      <point x="138" y="666" type="line"/>
      <point x="166" y="703"/>
      <point x="213" y="725"/>
      <point x="263" y="725" type="curve" smooth="yes"/>
      <point x="279" y="725" type="line"/>
    </contour>
  </outline>
</glyph>
<glyph name="circumflex" format="1">
  <advance width="500"/>
  <unicode hex="02C6"/>
  <outline>
    <contour>
      <point x="390" y="555" type="line"/>
      <point x="369" y="555" type="line"/>
      <point x="250" y="679" type="line"/>
      <point x="131" y="555" type="line"/>
      <point x="110" y="555" type="line"/>
      <point x="240" y="690" type="line"/>
      <point x="260" y="690" type="line"/>
    </contour>
  </outline>
</glyph>
<glyph name="caron" format="1">
  <advance width="500"/>
  <unicode hex="02C7"/>
  <outline>
    <contour>
      <point x="390" y="690" type="line"/>
      <point x="260" y="555" type="line"/>
      <point x="240" y="555" type="line"/>
      <point x="110" y="690" type="line"/>
      <point x="131" y="690" type="line"/>
      <point x="250" y="566" type="line"/>
      <point x="369" y="690" type="line"/>
    </contour>
  </outline>
</glyph>
<glyph name="breve" format="1">
  <advance width="500"/>
  <unicode hex="02D8"/>
  <outline>
    <contour>
      <point x="371" y="593" type="line"/>
      <point x="340" y="570"/>
      <point x="292" y="555"/>
      <point x="250" y="555" type="curve" smooth="yes"/>
      <point x="208" y="555"/>
      <point x="160" y="570"/>
      <point x="129" y="593" type="curve"/>
      <point x="129" y="690" type="line"/>
      <point x="145" y="690" type="line"/>
      <point x="145" y="601" type="line"/>
      <point x="174" y="579"/>
      <point x="218" y="570"/>
      <point x="250" y="570" type="curve" smooth="yes"/>
      <point x="282" y="570"/>
      <point x="326" y="579"/>
      <point x="355" y="601" type="curve"/>
      <point x="355" y="690" type="line"/>
      <point x="371" y="690" type="line"/>
    </contour>
  </outline>
</glyph>
<glyph name="ring" format="1">
  <advance width="500"/>
  <unicode hex="02DA"/>
  <outline>
    <contour>
      <point x="371" y="593" type="line"/>
      <point x="340" y="570"/>
      <point x="292" y="555"/>
      <point x="250" y="555" type="curve" smooth="yes"/>
      <point x="208" y="555"/>
      <point x="160" y="570"/>
      <point x="129" y="593" type="curve"/>
      <point x="129" y="662" type="line"/>
      <point x="160" y="685"/>
      <point x="208" y="700"/>
      <point x="250" y="700" type="curve" smooth="yes"/>
      <point x="292" y="700"/>
      <point x="340" y="685"/>
      <point x="371" y="662" type="curve"/>
    </contour>
    <contour>
      <point x="355" y="601" type="curve"/>
      <point x="355" y="654" type="line"/>
      <point x="326" y="676"/>
      <point x="282" y="685"/>
      <point x="250" y="685" type="curve" smooth="yes"/>
      <point x="218" y="685"/>
      <point x="174" y="676"/>
      <point x="145" y="654" type="curve"/>
      <point x="145" y="601" type="line"/>
      <point x="174" y="579"/>
      <point x="218" y="570"/>
      <point x="250" y="570" type="curve" smooth="yes"/>
      <point x="282" y="570"/>
      <point x="326" y="579"/>
    </contour>
  </outline>
</glyph>
<glyph name="ogonek" format="1">
  <advance width="500"/>
  <unicode hex="02DB"/>
  <outline>
    <contour>
      <point x="343" y="-120" type="line"/>
      <point x="337" y="-120" type="line" smooth="yes"/>
      <point x="302" y="-120"/>
      <point x="269" y="-112"/>
      <point x="242" y="-82" type="curve"/>
      <point x="242" y="0" type="line"/>
      <point x="258" y="0" type="line"/>
      <point x="258" y="-76" type="line"/>
      <point x="281" y="-99"/>
      <point x="306" y="-105"/>
      <point x="337" y="-105" type="curve" smooth="yes"/>
      <point x="343" y="-105" type="line"/>
    </contour>
  </outline>
</glyph>
<glyph name="tilde" format="1">
  <advance width="500"/>
  <unicode hex="02DC"/>
  <outline>
    <contour>
      <point x="400" y="690" type="line"/>
      <point x="318" y="555" type="line"/>
      <point x="303" y="555" type="line"/>
      <point x="191" y="675" type="line"/>
      <point x="118" y="555" type="line"/>
      <point x="100" y="555" type="line"/>
      <point x="182" y="690" type="line"/>
      <point x="197" y="690" type="line"/>
      <point x="309" y="570" type="line"/>
      <point x="382" y="690" type="line"/>
    </contour>
  </outline>
</glyph>
<glyph name="hungarumlaut" format="1">
  <advance width="500"/>
  <unicode hex="02DD"/>
  <outline>
    <contour>
      <point x="397" y="690" type="line"/>
      <point x="303" y="555" type="line"/>
      <point x="283" y="555" type="line"/>
      <point x="377" y="690" type="line"/>
    </contour>
    <contour>
      <point x="217" y="690" type="line"/>
      <point x="123" y="555" type="line"/>
      <point x="103" y="555" type="line"/>
      <point x="197" y="690" type="line"/>
    </contour>
  </outline>
</glyph>
<glyph name="endash" format="1">
  <advance width="500"/>
  <unicode hex="2013"/>
  <outline>
    <contour>
      <point x="440" y="312" type="line"/>
      <point x="60" y="312" type="line"/>
      <point x="60" y="327" type="line"/>
      <point x="440" y="327" type="line"/>
    </contour>
  </outline>
</glyph>
<glyph name="emdash" format="1">
  <advance width="670"/>
  <unicode hex="2014"/>
  <outline>
    <contour>
      <point x="610" y="312" type="line"/>
      <point x="60" y="312" type="line"/>
      <point x="60" y="327" type="line"/>
      <point x="610" y="327" type="line"/>
    </contour>
  </outline>
</glyph>
<glyph name="quoteleft" format="1">
  <advance width="210"/>
  <unicode hex="2018"/>
  <unicode hex="02BB"/>
  <outline>
    <contour>
      <point x="127" y="480" type="line"/>
      <point x="111" y="480" type="line"/>
      <point x="81" y="720" type="line"/>
      <point x="97" y="720" type="line"/>
    </contour>
  </outline>
</glyph>
<glyph name="quoteright" format="1">
  <advance width="210"/>
  <unicode hex="2019"/>
  <unicode hex="02BC"/>
  <outline>
    <contour>
      <point x="127" y="720" type="line"/>
      <point x="97" y="480" type="line"/>
      <point x="81" y="480" type="line"/>
      <point x="111" y="720" type="line"/>
    </contour>
  </outline>
</glyph>
<glyph name="quotesinglbase" format="1">
  <advance width="210"/>
  <unicode hex="201A"/>
  <outline>
    <contour>
      <point x="118" y="105" type="line"/>
      <point x="88" y="-135" type="line"/>
      <point x="72" y="-135" type="line"/>
      <point x="102" y="105" type="line"/>
    </contour>
  </outline>
</glyph>
<glyph name="quotedblleft" format="1">
  <advance width="390"/>
  <unicode hex="201C"/>
  <outline>
    <contour>
      <point x="307" y="480" type="line"/>
      <point x="291" y="480" type="line"/>
      <point x="261" y="720" type="line"/>
      <point x="277" y="720" type="line"/>
    </contour>
    <contour>
      <point x="127" y="480" type="line"/>
      <point x="111" y="480" type="line"/>
      <point x="81" y="720" type="line"/>
      <point x="97" y="720" type="line"/>
    </contour>
  </outline>
</glyph>
<glyph name="quotedblright" format="1">
  <advance width="390"/>
  <unicode hex="201D"/>
  <outline>
    <contour>
      <point x="307" y="720" type="line"/>
      <point x="277" y="480" type="line"/>
      <point x="261" y="480" type="line"/>
      <point x="291" y="720" type="line"/>
    </contour>
    <contour>
      <point x="127" y="720" type="line"/>
      <point x="97" y="480" type="line"/>
      <point x="81" y="480" type="line"/>
      <point x="111" y="720" type="line"/>
    </contour>
  </outline>
</glyph>
<glyph name="quotedblbase" format="1">
  <advance width="390"/>
  <unicode hex="201E"/>
  <outline>
    <contour>
      <point x="298" y="105" type="line"/>
      <point x="268" y="-135" type="line"/>
      <point x="252" y="-135" type="line"/>
      <point x="282" y="105" type="line"/>
    </contour>
    <contour>
      <point x="118" y="105" type="line"/>
      <point x="88" y="-135" type="line"/>
      <point x="72" y="-135" type="line"/>
      <point x="102" y="105" type="line"/>
    </contour>
  </outline>
</glyph>
<glyph name="dagger" format="1">
  <advance width="484"/>
  <unicode hex="2020"/>
  <outline>
    <contour>
      <point x="434" y="465" type="line"/>
      <point x="250" y="465" type="line"/>
      <point x="250" y="0" type="line"/>
      <point x="234" y="0" type="line"/>
      <point x="234" y="465" type="line"/>
      <point x="50" y="465" type="line"/>
      <point x="50" y="480" type="line"/>
      <point x="234" y="480" type="line"/>
      <point x="234" y="720" type="line"/>
      <point x="250" y="720" type="line"/>
      <point x="250" y="480" type="line"/>
      <point x="434" y="480" type="line"/>
    </contour>
  </outline>
</glyph>
<glyph name="bullet" format="1">
  <advance width="434"/>
  <unicode hex="2022"/>
  <outline>
    <contour>
      <point x="347" y="266" type="line"/>
      <point x="313" y="237"/>
      <point x="260" y="225"/>
      <point x="217" y="225" type="curve" smooth="yes"/>
      <point x="174" y="225"/>
      <point x="121" y="237"/>
      <point x="87" y="266" type="curve"/>
      <point x="87" y="478" type="line"/>
      <point x="121" y="507"/>
      <point x="174" y="519"/>
      <point x="217" y="519" type="curve" smooth="yes"/>
      <point x="260" y="519"/>
      <point x="313" y="507"/>
      <point x="347" y="478" type="curve"/>
    </contour>
  </outline>
</glyph>
<glyph name="ellipsis" format="1">
  <advance width="630"/>
  <unicode hex="2026"/>
  <outline>
    <contour>
      <point x="533" y="0" type="line"/>
      <point x="517" y="0" type="line"/>
      <point x="517" y="105" type="line"/>
      <point x="533" y="105" type="line"/>
    </contour>
    <contour>
      <point x="323" y="0" type="line"/>
      <point x="307" y="0" type="line"/>
      <point x="307" y="105" type="line"/>
      <point x="323" y="105" type="line"/>
    </contour>
    <contour>
      <point x="113" y="0" type="line"/>
      <point x="97" y="0" type="line"/>
      <point x="97" y="105" type="line"/>
      <point x="113" y="105" type="line"/>
    </contour>
  </outline>
</glyph>
<glyph name="guilsinglleft" format="1">
  <advance width="340"/>
  <unicode hex="2039"/>
  <outline>
    <contour>
      <point x="275" y="-10" type="line"/>
      <point x="48" y="232" type="line"/>
      <point x="48" y="248" type="line"/>
      <point x="275" y="490" type="line"/>
      <point x="275" y="469" type="line"/>
      <point x="62" y="240" type="line"/>
      <point x="275" y="11" type="line"/>
    </contour>
  </outline>
</glyph>
<glyph name="guilsinglright" format="1">
  <advance width="340"/>
  <unicode hex="203A"/>
  <outline>
    <contour>
      <point x="292" y="232" type="line"/>
      <point x="65" y="-10" type="line"/>
      <point x="65" y="11" type="line"/>
      <point x="278" y="240" type="line"/>
      <point x="65" y="469" type="line"/>
      <point x="65" y="490" type="line"/>
      <point x="292" y="248" type="line"/>
    </contour>
  </outline>
</glyph>
<glyph name="fraction" format="1">
  <advance width="460"/>
  <unicode hex="2044"/>
  <unicode hex="2215"/>
  <outline>
    <contour>
      <point x="440" y="720" type="line"/>
      <point x="38" y="0" type="line"/>
      <point x="20" y="0" type="line"/>
      <point x="422" y="720" type="line"/>
    </contour>
  </outline>
</glyph>
<glyph name="Euro" format="1">
  <advance width="720"/>
  <unicode hex="20AC"/>
  <outline>
    <contour>
      <point x="138" y="431" type="line"/>
      <point x="138" y="289" type="line"/>
      <point x="370" y="289" type="line"/>
      <point x="370" y="274" type="line"/>
      <point x="138" y="274" type="line"/>
      <point x="138" y="85" type="line"/>
      <point x="215" y="26"/>
      <point x="288" y="5"/>
      <point x="375" y="5" type="curve" smooth="yes"/>
      <point x="462" y="5"/>
      <point x="535" y="26"/>
      <point x="612" y="85" type="curve"/>
      <point x="612" y="178" type="line"/>
      <point x="628" y="178" type="line"/>
      <point x="628" y="78" type="line"/>
      <point x="548" y="15"/>
      <point x="464" y="-10"/>
      <point x="375" y="-10" type="curve" smooth="yes"/>
      <point x="286" y="-10"/>
      <point x="202" y="15"/>
      <point x="122" y="78" type="curve"/>
      <point x="122" y="274" type="line"/>
      <point x="50" y="274" type="line"/>
      <point x="50" y="289" type="line"/>
      <point x="122" y="289" type="line"/>
      <point x="122" y="431" type="line"/>
      <point x="50" y="431" type="line"/>
      <point x="50" y="446" type="line"/>
      <point x="122" y="446" type="line"/>
      <point x="122" y="642" type="line"/>
      <point x="202" y="705"/>
      <point x="286" y="730"/>
      <point x="375" y="730" type="curve" smooth="yes"/>
      <point x="464" y="730"/>
      <point x="548" y="705"/>
      <point x="628" y="642" type="curve"/>
      <point x="628" y="542" type="line"/>
      <point x="612" y="542" type="line"/>
      <point x="612" y="634" type="line"/>
      <point x="535" y="693"/>
      <point x="462" y="715"/>
      <point x="375" y="715" type="curve" smooth="yes"/>
      <point x="288" y="715"/>
      <point x="215" y="693"/>
      <point x="138" y="634" type="curve"/>
      <point x="138" y="446" type="line"/>
      <point x="370" y="446" type="line"/>
      <point x="370" y="431" type="line"/>
    </contour>
  </outline>
</glyph>
<glyph name="uni2117" format="1">
  <advance width="820"/>
  <unicode hex="2117"/>
  <outline>
    <contour>
      <point x="708" y="85" type="line"/>
      <point x="635" y="20"/>
      <point x="518" y="-10"/>
      <point x="410" y="-10" type="curve" smooth="yes"/>
      <point x="302" y="-10"/>
      <point x="185" y="20"/>
      <point x="112" y="85" type="curve"/>
      <point x="112" y="635" type="line"/>
      <point x="185" y="700"/>
      <point x="302" y="730"/>
      <point x="410" y="730" type="curve" smooth="yes"/>
      <point x="518" y="730"/>
      <point x="635" y="700"/>
      <point x="708" y="635" type="curve"/>
    </contour>
    <contour>
      <point x="692" y="91" type="curve"/>
      <point x="692" y="629" type="line"/>
      <point x="621" y="689"/>
      <point x="505" y="715"/>
      <point x="410" y="715" type="curve" smooth="yes"/>
      <point x="315" y="715"/>
      <point x="199" y="689"/>
      <point x="128" y="629" type="curve"/>
      <point x="128" y="91" type="line"/>
      <point x="199" y="31"/>
      <point x="315" y="5"/>
      <point x="410" y="5" type="curve" smooth="yes"/>
      <point x="505" y="5"/>
      <point x="621" y="31"/>
    </contour>
    <contour>
      <point x="548" y="389" type="line"/>
      <point x="512" y="347"/>
      <point x="469" y="335"/>
      <point x="419" y="335" type="curve" smooth="yes"/>
      <point x="303" y="335" type="line"/>
      <point x="303" y="166" type="line"/>
      <point x="287" y="166" type="line"/>
      <point x="287" y="557" type="line"/>
      <point x="419" y="557" type="line" smooth="yes"/>
      <point x="469" y="557"/>
      <point x="512" y="545"/>
      <point x="548" y="503" type="curve"/>
    </contour>
    <contour>
      <point x="533" y="397" type="curve"/>
      <point x="533" y="495" type="line"/>
      <point x="501" y="533"/>
      <point x="460" y="542"/>
      <point x="419" y="542" type="curve" smooth="yes"/>
      <point x="303" y="542" type="line"/>
      <point x="303" y="350" type="line"/>
      <point x="419" y="350" type="line" smooth="yes"/>
      <point x="460" y="350"/>
      <point x="501" y="359"/>
    </contour>
  </outline>
</glyph>
<glyph name="trademark" format="1">
  <advance width="905"/>
  <unicode hex="2122"/>
  <outline>
    <contour>
      <point x="810" y="311" type="line"/>
      <point x="794" y="311" type="line"/>
      <point x="794" y="671" type="line"/>
      <point x="749" y="697"/>
      <point x="685" y="709"/>
      <point x="626" y="711" type="curve"/>
      <point x="626" y="311" type="line"/>
      <point x="610" y="311" type="line"/>
      <point x="610" y="711" type="line"/>
      <point x="552" y="710"/>
      <point x="487" y="698"/>
      <point x="442" y="671" type="curve"/>
      <point x="442" y="311" type="line"/>
      <point x="426" y="311" type="line"/>
      <point x="426" y="680" type="line"/>
      <point x="479" y="710"/>
      <point x="547" y="725"/>
      <point x="618" y="725" type="curve" smooth="yes"/>
      <point x="688" y="725"/>
      <point x="757" y="710"/>
      <point x="810" y="680" type="curve"/>
    </contour>
    <contour>
      <point x="340" y="706" type="line"/>
      <point x="197" y="706" type="line"/>
      <point x="197" y="311" type="line"/>
      <point x="181" y="311" type="line"/>
      <point x="181" y="706" type="line"/>
      <point x="38" y="706" type="line"/>
      <point x="38" y="720" type="line"/>
      <point x="340" y="720" type="line"/>
    </contour>
  </outline>
</glyph>
<glyph name="radical" format="1">
  <advance width="585"/>
  <unicode hex="221A"/>
  <outline>
    <contour>
      <point x="523" y="720" type="line"/>
      <point x="275" y="0" type="line"/>
      <point x="259" y="0" type="line"/>
      <point x="65" y="311" type="line"/>
      <point x="84" y="311" type="line"/>
      <point x="266" y="19" type="line"/>
      <point x="506" y="720" type="line"/>
    </contour>
  </outline>
</glyph>
<glyph name="fl" format="1">
  <advance width="515"/>
  <unicode hex="FB02"/>
  <outline>
    <contour>
      <point x="418" y="0" type="line"/>
      <point x="402" y="0" type="line"/>
      <point x="402" y="720" type="line"/>
      <point x="418" y="720" type="line"/>
    </contour>
    <contour>
      <point x="279" y="710" type="line"/>
      <point x="263" y="710" type="line" smooth="yes"/>
      <point x="216" y="710"/>
      <point x="179" y="691"/>
      <point x="154" y="660" type="curve"/>
      <point x="154" y="480" type="line"/>
      <point x="269" y="480" type="line"/>
      <point x="269" y="465" type="line"/>
      <point x="154" y="465" type="line"/>
      <point x="154" y="0" type="line"/>
      <point x="138" y="0" type="line"/>
      <point x="138" y="465" type="line"/>
      <point x="64" y="465" type="line"/>
      <point x="64" y="480" type="line"/>
      <point x="138" y="480" type="line"/>
      <point x="138" y="666" type="line"/>
      <point x="166" y="703"/>
      <point x="213" y="725"/>
      <point x="263" y="725" type="curve" smooth="yes"/>
      <point x="279" y="725" type="line"/>
    </contour>
  </outline>
</glyph>
<glyph name="registered" format="1">
  <advance width="820"/>
  <outline>
    <contour>
      <point x="708" y="85" type="line"/>
      <point x="635" y="20"/>
      <point x="518" y="-10"/>
      <point x="410" y="-10" type="curve" smooth="yes"/>
      <point x="302" y="-10"/>
      <point x="185" y="20"/>
      <point x="112" y="85" type="curve"/>
      <point x="112" y="635" type="line"/>
      <point x="185" y="700"/>
      <point x="302" y="730"/>
      <point x="410" y="730" type="curve" smooth="yes"/>
      <point x="518" y="730"/>
      <point x="635" y="700"/>
      <point x="708" y="635" type="curve"/>
    </contour>
    <contour>
      <point x="692" y="91" type="curve"/>
      <point x="692" y="629" type="line"/>
      <point x="621" y="689"/>
      <point x="505" y="715"/>
      <point x="410" y="715" type="curve" smooth="yes"/>
      <point x="315" y="715"/>
      <point x="199" y="689"/>
      <point x="128" y="629" type="curve"/>
      <point x="128" y="91" type="line"/>
      <point x="199" y="31"/>
      <point x="315" y="5"/>
      <point x="410" y="5" type="curve" smooth="yes"/>
      <point x="505" y="5"/>
      <point x="621" y="31"/>
    </contour>
    <contour>
      <point x="543" y="166" type="line"/>
      <point x="527" y="166" type="line"/>
      <point x="527" y="306" type="line"/>
      <point x="496" y="335"/>
      <point x="459" y="345"/>
      <point x="421" y="345" type="curve" smooth="yes"/>
      <point x="295" y="345" type="line"/>
      <point x="295" y="166" type="line"/>
      <point x="279" y="166" type="line"/>
      <point x="279" y="557" type="line"/>
      <point x="411" y="557" type="line" smooth="yes"/>
      <point x="461" y="557"/>
      <point x="504" y="545"/>
      <point x="540" y="503" type="curve"/>
      <point x="540" y="392" type="line"/>
      <point x="521" y="372"/>
      <point x="494" y="358"/>
      <point x="471" y="353" type="curve"/>
      <point x="495" y="347"/>
      <point x="523" y="334"/>
      <point x="543" y="313" type="curve"/>
    </contour>
    <contour>
      <point x="525" y="399" type="curve"/>
      <point x="525" y="495" type="line"/>
      <point x="493" y="533"/>
      <point x="452" y="542"/>
      <point x="411" y="542" type="curve" smooth="yes"/>
      <point x="295" y="542" type="line"/>
      <point x="295" y="360" type="line"/>
      <point x="418" y="360" type="line" smooth="yes"/>
      <point x="459" y="360"/>
      <point x="499" y="371"/>
    </contour>
  </outline>
</glyph>
